/* XPM */
static xpm_row_t xpm_shuriken3[] = {
"47 47 521 2",
"  	c None",
". 	c #097C0E",
"+ 	c #0B7913",
"@ 	c #097812",
"# 	c #077B0E",
"$ 	c #008001",
"% 	c #087A10",
"& 	c #077C0C",
"* 	c #225F2F",
"= 	c #485452",
"- 	c #525C58",
"; 	c #39613D",
"> 	c #0A7C0F",
", 	c #087C0D",
"' 	c #017F02",
") 	c #027F03",
"! 	c #077C0D",
"~ 	c #0F7B13",
"{ 	c #3D5D42",
"] 	c #535E5A",
"^ 	c #44514F",
"/ 	c #1D652A",
"( 	c #008100",
"_ 	c #135627",
": 	c #AEAFB1",
"< 	c #CECCC8",
"[ 	c #8A877A",
"} 	c #3A5142",
"| 	c #384F41",
"1 	c #35543E",
"2 	c #147919",
"3 	c #027F04",
"4 	c #037E06",
"5 	c #017F03",
"6 	c #1A751F",
"7 	c #375240",
"8 	c #415446",
"9 	c #938F82",
"0 	c #D3D2CF",
"a 	c #9F9FA2",
"b 	c #005D1C",
"c 	c #1F5A2E",
"d 	c #77787A",
"e 	c #878786",
"f 	c #79766E",
"g 	c #9C9589",
"h 	c #9D9689",
"i 	c #989285",
"j 	c #4C604C",
"k 	c #295137",
"l 	c #2C5139",
"m 	c #2C5039",
"n 	c #1F6A29",
"o 	c #018001",
"p 	c #22652D",
"q 	c #275036",
"r 	c #586755",
"s 	c #9A9487",
"t 	c #9B9488",
"u 	c #75726B",
"v 	c #8B8B8B",
"w 	c #6D6E72",
"x 	c #186128",
"y 	c #117619",
"z 	c #2F5938",
"A 	c #46474D",
"B 	c #5D5D5C",
"C 	c #727069",
"D 	c #737069",
"E 	c #76736C",
"F 	c #918B80",
"G 	c #969084",
"H 	c #968F84",
"I 	c #979085",
"J 	c #737968",
"K 	c #1B552F",
"L 	c #215631",
"M 	c #1F5C2F",
"N 	c #057C0B",
"O 	c #097911",
"P 	c #205930",
"Q 	c #215731",
"R 	c #7C7F6F",
"S 	c #8F897E",
"T 	c #74716B",
"U 	c #73706A",
"V 	c #716F69",
"W 	c #5A5A5A",
"X 	c #44454B",
"Y 	c #2B5E35",
"Z 	c #0E7816",
"` 	c #0E7518",
" .	c #355D3D",
"..	c #4C4D52",
"+.	c #46494E",
"@.	c #29333D",
"#.	c #363C43",
"$.	c #77746D",
"%.	c #807C73",
"&.	c #88847B",
"*.	c #8D887E",
"=.	c #8D877E",
"-.	c #8D877D",
";.	c #8D867D",
">.	c #868378",
",.	c #39633D",
"'.	c #145D29",
").	c #077812",
"!.	c #008200",
"~.	c #0A7417",
"{.	c #115C28",
"].	c #466745",
"^.	c #89857A",
"/.	c #878379",
"(.	c #726F69",
"_.	c #2E373F",
":.	c #2B353E",
"<.	c #484B4F",
"[.	c #4B4D51",
"}.	c #306039",
"|.	c #0A7814",
"1.	c #345C3D",
"2.	c #4E5153",
"3.	c #323A41",
"4.	c #28333D",
"5.	c #42464B",
"6.	c #4A4D51",
"7.	c #6E6C67",
"8.	c #8F8A7F",
"9.	c #958F84",
"0.	c #938D82",
"a.	c #847F77",
"b.	c #817C74",
"c.	c #4E6E4B",
"d.	c #1A6728",
"e.	c #196728",
"f.	c #587053",
"g.	c #827D75",
"h.	c #868078",
"i.	c #938E83",
"j.	c #948F84",
"k.	c #676662",
"l.	c #3F4349",
"m.	c #27323C",
"n.	c #2A343D",
"o.	c #353C43",
"p.	c #494C50",
"q.	c #4D5252",
"r.	c #2F5E38",
"s.	c #0A7813",
"t.	c #156F20",
"u.	c #5A5B5C",
"v.	c #303840",
"w.	c #2F3740",
"x.	c #2F373F",
"y.	c #2C353E",
"z.	c #3B4147",
"A.	c #505255",
"B.	c #535557",
"C.	c #666564",
"D.	c #938D7F",
"E.	c #585552",
"F.	c #202530",
"G.	c #1F2430",
"H.	c #635F59",
"I.	c #968F82",
"J.	c #928C82",
"K.	c #616161",
"L.	c #525456",
"M.	c #505254",
"N.	c #373E45",
"O.	c #2D353E",
"P.	c #2F3840",
"Q.	c #3A4046",
"R.	c #5B5B5C",
"S.	c #394244",
"T.	c #10751A",
"U.	c #12741B",
"V.	c #375440",
"W.	c #535556",
"X.	c #393F45",
"Y.	c #545657",
"Z.	c #525252",
"`.	c #262629",
" +	c #0F141A",
".+	c #161B1F",
"++	c #0C1118",
"@+	c #2D2E30",
"#+	c #545454",
"$+	c #343B42",
"%+	c #45484C",
"&+	c #525556",
"*+	c #32553C",
"=+	c #12761A",
"-+	c #355140",
";+	c #545757",
">+	c #41454A",
",+	c #30383F",
"'+	c #2C3239",
")+	c #14181D",
"!+	c #171D29",
"~+	c #262D36",
"{+	c #2B3239",
"]+	c #252C35",
"^+	c #151B26",
"/+	c #171B20",
"(+	c #2D343B",
"_+	c #333B42",
":+	c #44484C",
"<+	c #535756",
"[+	c #31533C",
"}+	c #0E7915",
"|+	c #127719",
"1+	c #354F40",
"2+	c #323941",
"3+	c #2C333B",
"4+	c #0E1217",
"5+	c #151C28",
"6+	c #282F38",
"7+	c #181E23",
"8+	c #070A0F",
"9+	c #1C2228",
"0+	c #272E37",
"a+	c #131925",
"b+	c #11161A",
"c+	c #2E353D",
"d+	c #46494D",
"e+	c #535656",
"f+	c #0E7A14",
"g+	c #364D41",
"h+	c #555558",
"i+	c #43474B",
"j+	c #2A3239",
"k+	c #0E1216",
"l+	c #293038",
"m+	c #171C21",
"n+	c #0D1320",
"o+	c #0E1625",
"p+	c #0C121E",
"q+	c #1B2026",
"r+	c #272E36",
"s+	c #0F1317",
"t+	c #2C343C",
"u+	c #535356",
"v+	c #32523D",
"w+	c #0E7914",
"x+	c #2E4C3C",
"y+	c #575859",
"z+	c #45494D",
"A+	c #29313A",
"B+	c #1A222F",
"C+	c #171E2A",
"D+	c #0C1014",
"E+	c #2B323A",
"F+	c #13171C",
"G+	c #0B1220",
"H+	c #101828",
"I+	c #090F1D",
"J+	c #181D22",
"K+	c #2A3138",
"L+	c #090D12",
"M+	c #19202C",
"N+	c #1B232F",
"O+	c #2B333C",
"P+	c #4A4D50",
"Q+	c #545457",
"R+	c #295237",
"S+	c #037F05",
"T+	c #187220",
"U+	c #3B5344",
"V+	c #383D45",
"W+	c #262E38",
"X+	c #1C2330",
"Y+	c #222934",
"Z+	c #252C34",
"`+	c #090C11",
" @	c #1B222D",
".@	c #262D34",
"+@	c #141A21",
"@@	c #030610",
"#@	c #181E24",
"$@	c #19202B",
"%@	c #0B0E13",
"&@	c #29303A",
"*@	c #202833",
"=@	c #1C2430",
"-@	c #283039",
";@	c #3A3E46",
">@	c #395741",
",@	c #14741C",
"'@	c #018002",
")@	c #174929",
"!@	c #1F2332",
"~@	c #242B35",
"{@	c #262E37",
"]@	c #2A323B",
"^@	c #303940",
"/@	c #2F363E",
"(@	c #242A31",
"_@	c #0E131C",
":@	c #1D242F",
"<@	c #242B33",
"[@	c #252B32",
"}@	c #10151D",
"|@	c #262C33",
"1@	c #232A35",
"2@	c #1E2132",
"3@	c #145326",
"4@	c #047E07",
"5@	c #20682A",
"6@	c #3F4E44",
"7@	c #32353D",
"8@	c #313941",
"9@	c #0E141F",
"0@	c #070D19",
"a@	c #1C2128",
"b@	c #21282E",
"c@	c #22282E",
"d@	c #1A1F26",
"e@	c #060C18",
"f@	c #111721",
"g@	c #252D37",
"h@	c #36383F",
"i@	c #3D5142",
"j@	c #1C6B26",
"k@	c #067D0B",
"l@	c #2E493C",
"m@	c #58585B",
"n@	c #464A4E",
"o@	c #313940",
"p@	c #2E363E",
"q@	c #242C36",
"r@	c #121929",
"s@	c #090F1B",
"t@	c #050A15",
"u@	c #010207",
"v@	c #01030A",
"w@	c #0A101D",
"x@	c #131B2A",
"y@	c #262D37",
"z@	c #4C4E51",
"A@	c #295038",
"B@	c #1B6F24",
"C@	c #3F5047",
"D@	c #515355",
"E@	c #404449",
"F@	c #111928",
"G@	c #060B16",
"H@	c #080E1A",
"I@	c #101829",
"J@	c #121A29",
"K@	c #505155",
"L@	c #3C5344",
"M@	c #16721F",
"N@	c #1C7124",
"O@	c #3D4C46",
"P@	c #545557",
"Q@	c #3D4248",
"R@	c #111929",
"S@	c #2E363F",
"T@	c #535456",
"U@	c #3A4F43",
"V@	c #17741F",
"W@	c #11751A",
"X@	c #374843",
"Y@	c #595A5A",
"Z@	c #3D4247",
"`@	c #212833",
" #	c #41464A",
".#	c #58595A",
"+#	c #324A3F",
"@#	c #0C7913",
"##	c #177220",
"$#	c #3C4646",
"%#	c #202733",
"&#	c #141C2A",
"*#	c #080E17",
"=#	c #0B101B",
"-#	c #141C2B",
";#	c #131A29",
">#	c #3F4449",
",#	c #58585A",
"'#	c #13761A",
")#	c #13721D",
"!#	c #555758",
"~#	c #3E4348",
"{#	c #313840",
"]#	c #1F2732",
"^#	c #141B2A",
"/#	c #282F39",
"(#	c #1C2229",
"_#	c #2C343D",
":#	c #555858",
"<#	c #34503F",
"[#	c #0F7718",
"}#	c #166F21",
"|#	c #5A5A5B",
"1#	c #353B42",
"2#	c #1F2632",
"3#	c #0F1728",
"4#	c #19212E",
"5#	c #2A313A",
"6#	c #141B28",
"7#	c #151D29",
"8#	c #161E2C",
"9#	c #3A3F45",
"0#	c #394345",
"a#	c #12721C",
"b#	c #395841",
"c#	c #4F5153",
"d#	c #3A3C41",
"e#	c #222833",
"f#	c #0F1727",
"g#	c #202732",
"h#	c #262D38",
"i#	c #202433",
"j#	c #1F2B32",
"k#	c #0D601D",
"l#	c #046A13",
"m#	c #066A15",
"n#	c #066915",
"o#	c #105B20",
"p#	c #202533",
"q#	c #272E38",
"r#	c #1D2530",
"s#	c #0E1727",
"t#	c #252A34",
"u#	c #3D3F43",
"v#	c #4F5353",
"w#	c #33593D",
"x#	c #0E7617",
"y#	c #14721E",
"z#	c #3A5A42",
"A#	c #4C4C51",
"B#	c #3C3E43",
"C#	c #242936",
"D#	c #232635",
"E#	c #232436",
"F#	c #1E3C30",
"G#	c #086019",
"H#	c #066118",
"I#	c #066317",
"J#	c #017C05",
"K#	c #027908",
"L#	c #066218",
"M#	c #0A5F1B",
"N#	c #203632",
"O#	c #232536",
"P#	c #242A36",
"Q#	c #212934",
"R#	c #0E1627",
"S#	c #151B2A",
"T#	c #404145",
"U#	c #4C4D51",
"V#	c #355C3D",
"W#	c #186129",
"X#	c #484850",
"Y#	c #545556",
"Z#	c #222A34",
"`#	c #262A37",
" $	c #262A38",
".$	c #262938",
"+$	c #19482A",
"@$	c #07591B",
"#$	c #08581C",
"$$	c #066517",
"%$	c #007F01",
"&$	c #076118",
"*$	c #1C442D",
"=$	c #272838",
"-$	c #252A37",
";$	c #252C36",
">$	c #42444C",
",$	c #146824",
"'$	c #0C7518",
")$	c #576F52",
"!$	c #696764",
"~$	c #494B4F",
"{$	c #292E3A",
"]$	c #292D3A",
"^$	c #273138",
"/$	c #124B25",
"($	c #0A4F1F",
"_$	c #0B4E1F",
":$	c #046E12",
"<$	c #0B4D1F",
"[$	c #154827",
"}$	c #2B303B",
"|$	c #4D4F52",
"1$	c #6B6965",
"2$	c #4F6F4B",
"3$	c #077713",
"4$	c #19572B",
"5$	c #79736D",
"6$	c #7E7971",
"7$	c #213634",
"8$	c #0E4423",
"9$	c #0D4422",
"0$	c #0C4B21",
"a$	c #027909",
"b$	c #03750D",
"c$	c #0D4722",
"d$	c #0F4424",
"e$	c #2A3839",
"f$	c #868077",
"g$	c #6E6A65",
"h$	c #125F25",
"i$	c #0A5C1C",
"j$	c #1E3C2B",
"k$	c #1F3D2C",
"l$	c #0C561E",
"m$	c #017E03",
"n$	c #017E02",
"o$	c #0E4F21",
"p$	c #213E2C",
"q$	c #1C3B2A",
"r$	c #086319",
"s$	c #017D03",
"t$	c #017B06",
"u$	c #017D04",
"v$	c #017C04",
"                                                                                              ",
"                                                                                              ",
"                                                                                              ",
"                                                                                              ",
"                                                                                              ",
"                                                                                              ",
"                                                                                              ",
"                                                                                              ",
"      . + @ #                                                               $ % @ + &         ",
"      * = - ; > , & '                                                 ) ! , ~ { ] ^ / (       ",
"      _ : < [ } | 1 2 3 4 4 )                                 3 4 4 5 6 7 | 8 9 0 a b (       ",
"      c d e f g h i j k l m n   o o $                 o o o o p m l q r s h t u v w x (       ",
"      y z A B C D E F G H I J K L L M N (         ( O P L L Q R I H G S T U V W X Y Z         ",
"      ( `  ...+.@.#.$.%.&.*.=.-.;.-.>.,.'.).( !.~.{.].^.;.;.-.=.*./.%.(._.:.<.[.}.|.(         ",
"        ( ` 1.2.<.3.@.4.5.6.7.8.9.9.0.a.b.c.d.e.f.g.h.i.9.j.*.k.6.l.m.n.o.p.q.r.s.(           ",
"          ( t.l.u.#.v.v.w.x.y.z.A.B.C.9.D.E.F.G.H.I.J.K.L.M.N.O.x.P.v.x.Q.R.S.T.(             ",
"          ( U.V.W.5.3.v.v.v.v.v.v.X.Y.Z.`. +.+.+++@+#+W.o.v.v.v.v.v.P.$+%+&+*+Z (             ",
"              =+-+;+>+3.v.v.v.v.v.,+'+)+!+~+{+{+]+^+/+(+v.v.v.v.v.v._+:+<+[+}+                ",
"              o |+1+;+5.2+v.v.v.v.3+4+5+6+7+8+8+9+0+a+b+c+v.v.v.v.3.d+e+[+f+o                 ",
"                ' |+g+h+i+x.v.v.x.j+k+l+m+n+o+o+p+q+r+s+t+x.v.v.x.<.u+v+w+o                   ",
"                  & x+y+z+_.v.A+B+C+D+E+F+G+H+H+I+J+K+L+M+N+O+v._.P+Q+R+S+                    ",
"                  3 T+U+V+W+X+Y+A+Z+`+ @.@+@@@@@#@]+$@%@0+&@*@=@-@;@>@,@'@                    ",
"                      )@!@~@{@]@^@/@(@_@:@<@[@[@<@ @}@|@x.v.A+{@1@2@3@(                       ",
"                  4@5@6@7@]@8@v.v.x.~@9@0@a@b@c@d@e@f@g@x.v.v.8@A+h@i@j@)                     ",
"                  k@l@m@n@x.v.o@p@q@r@H+s@t@u@v@t@w@H+x@y@x.^@v.x.z@h+A@)                     ",
"                3 B@C@D@E@w.O.A+q@F@H+H+H+H+G@H@I@H+H+H+J@{@A+p@w.:+K@L@M@'                   ",
"              4 N@O@P@Q@v.p@Y+H+F@H+H+H+H+H+G@H@H+H+H+H+H+F@R@q@S@v.5.T@U@V@3                 ",
"            ( W@X@Y@Z@v.S@`@F@H+H+H+H+H+H+H+G@H@H+H+H+H+H+H+H+R@~@x.v. #.#+#@#                ",
"            o ##$#.#Q.S@%#r@H+H+H+H+H+H+x@&#*#=#-#;#H+H+H+H+H+H+J@1@S@>#,#X@'#o               ",
"          ( )#U@!#~#{#]#J@H+H+H+H+r@r@^#/#t+#@(#_#y@J@r@R@H+H+H+H+x@Y+2+>+:#<#[#(             ",
"          ( }#>#|#1#2#;#H+H+H+3#4#5#]@5#]#=@6#7#=@`@]@]@A+8#H+H+H+3#^#*@9#u.0#U.(             ",
"        ( a#b#c#d#e#R@f#f#g#-@-@h#i#i#j#k#l#m#n#l#o#2#i#p#q#-@-@r#s#s#x@t#u#v#w#x#(           ",
"        y#z#A#B#3#H+1@y@g@C#D#E#F#G#H#I#J#( ( ( !.K#L#H#M#N#O#D#P#g@y@Q#R#S#T#U#V#W@(         ",
"      ( W#X#Y#Y+Z#1@`# $.$+$@$#$$$  ( (             ( ( %$&$#$@$*$=$ $-$1@Z#;$y+>$,$!.        ",
"      '$)$!$~${$]$^$/$($_$:$( ( (                         ( ( ( n#<$($[$/#]$}$|$1$2$3$        ",
"      4$5$6$7$8$9$0$a$                                                b$c$9$d$e$f$g$h$(       ",
"      i$j$k$l$m$n$n$                                                  $ n$n$J#o$p$q$r$(       ",
"      s$t$t$u$                                                                v$t$t$m$        ",
"                                                                                              ",
"                                                                                              ",
"                                                                                              ",
"                                                                                              ",
"                                                                                              ",
"                                                                                              ",
"                                                                                              ",
"                                                                                              ",
"                                                                                              "};
