/* XPM */
static xpm_row_t xpm_shuriken2[]  = {
"47 47 390 2",
"  	c None",
". 	c #008100",
"+ 	c #007A02",
"@ 	c #006A0B",
"# 	c #007305",
"$ 	c #007A03",
"% 	c #638268",
"& 	c #979597",
"* 	c #5C6A52",
"= 	c #00680F",
"- 	c #00730C",
"; 	c #006D14",
"> 	c #8C8B8C",
", 	c #CCC9C4",
"' 	c #757069",
") 	c #2C2C3A",
"! 	c #325039",
"~ 	c #007209",
"{ 	c #0C6F1C",
"] 	c #6F6C66",
"^ 	c #979084",
"/ 	c #3B4047",
"( 	c #3E4348",
"_ 	c #4C4C51",
": 	c #335039",
"< 	c #00710A",
"[ 	c #008200",
"} 	c #706D67",
"| 	c #9C968A",
"1 	c #58595B",
"2 	c #42464B",
"3 	c #3D4248",
"4 	c #35513B",
"5 	c #005E16",
"6 	c #00710D",
"7 	c #9C9689",
"8 	c #5F5F60",
"9 	c #525456",
"0 	c #2C353E",
"a 	c #3E4147",
"b 	c #393742",
"c 	c #00700A",
"d 	c #5E5F5F",
"e 	c #5B5B5C",
"f 	c #44484C",
"g 	c #2E363F",
"h 	c #2F373F",
"i 	c #354F3B",
"j 	c #00700B",
"k 	c #5E5E5F",
"l 	c #606060",
"m 	c #5B5C5D",
"n 	c #45494D",
"o 	c #2E373F",
"p 	c #3C4247",
"q 	c #36503C",
"r 	c #00521A",
"s 	c #02700F",
"t 	c #5C5C5D",
"u 	c #46494D",
"v 	c #3B4147",
"w 	c #4C4D50",
"x 	c #514F53",
"y 	c #364F3C",
"z 	c #05501D",
"A 	c #19542B",
"B 	c #1A552C",
"C 	c #155429",
"D 	c #1D562E",
"E 	c #19552C",
"F 	c #1D562F",
"G 	c #0B7815",
"H 	c #5C5D5D",
"I 	c #474A4E",
"J 	c #2F3740",
"K 	c #373B43",
"L 	c #10172C",
"M 	c #77726A",
"N 	c #C2C0BE",
"O 	c #D7D7D8",
"P 	c #AFABA5",
"Q 	c #C4C2C1",
"R 	c #D6D6D8",
"S 	c #ACA8A1",
"T 	c #556851",
"U 	c #245533",
"V 	c #275635",
"W 	c #265734",
"X 	c #0A7B10",
"Y 	c #616161",
"Z 	c #4A4A4B",
"` 	c #11161C",
" .	c #161A1F",
"..	c #15191E",
"+.	c #14191D",
"@.	c #161E28",
"#.	c #424448",
"$.	c #6D6B67",
"%.	c #B1ADA4",
"&.	c #CAC5BB",
"*.	c #9A968F",
"=.	c #B4AFA7",
"-.	c #C9C4BB",
";.	c #97938B",
">.	c #61605F",
",.	c #565659",
"'.	c #575759",
").	c #565758",
"!.	c #33543D",
"~.	c #285337",
"{.	c #295337",
"].	c #077C0C",
"^.	c #4F4F4F",
"/.	c #202126",
"(.	c #1D242D",
"_.	c #2A3138",
":.	c #000514",
"<.	c #979185",
"[.	c #B0A898",
"}.	c #807C75",
"|.	c #6F6D69",
"1.	c #77746E",
"2.	c #666564",
"3.	c #404246",
"4.	c #31333A",
"5.	c #32343B",
"6.	c #31343B",
"7.	c #202431",
"8.	c #1B202F",
"9.	c #212632",
"0.	c #515355",
"a.	c #2F563A",
"b.	c #077D0B",
"c.	c #126F1F",
"d.	c #716E69",
"e.	c #958E82",
"f.	c #292C36",
"g.	c #46474A",
"h.	c #4E4E4E",
"i.	c #1D1F24",
"j.	c #1E2631",
"k.	c #22282F",
"l.	c #111519",
"m.	c #222930",
"n.	c #1E2630",
"o.	c #202226",
"p.	c #2B2D32",
"q.	c #484748",
"r.	c #555250",
"s.	c #3D3E41",
"t.	c #2C2F37",
"u.	c #2D3038",
"v.	c #1A1F2C",
"w.	c #0E1727",
"x.	c #0F1828",
"y.	c #121A29",
"z.	c #283039",
"A.	c #2B333C",
"B.	c #2C3A37",
"C.	c #15721D",
"D.	c #027F03",
"E.	c #018001",
"F.	c #017F03",
"G.	c #1C7525",
"H.	c #6B7265",
"I.	c #989286",
"J.	c #6D6B68",
"K.	c #5B5B5B",
"L.	c #4C4C4F",
"M.	c #212329",
"N.	c #1B2127",
"O.	c #232930",
"P.	c #0D131D",
"Q.	c #0E1524",
"R.	c #0D131C",
"S.	c #232A31",
"T.	c #1B2026",
"U.	c #080E1C",
"V.	c #0E1728",
"W.	c #0C1627",
"X.	c #0F1728",
"Y.	c #101828",
"Z.	c #111929",
"`.	c #131A29",
" +	c #1B292F",
".+	c #172F2B",
"++	c #057111",
"@+	c #007F01",
"#+	c #237729",
"$+	c #45584F",
"%+	c #8E9491",
"&+	c #D9D7D4",
"*+	c #ADA595",
"=+	c #A9A193",
"-+	c #958F84",
";+	c #5F5F5F",
">+	c #59595A",
",+	c #434444",
"'+	c #23292F",
")+	c #080E19",
"!+	c #101827",
"~+	c #232A30",
"{+	c #1D2228",
"]+	c #090F1C",
"^+	c #131B2A",
"/+	c #2C343C",
"(+	c #1B2B2F",
"_+	c #162F2A",
":+	c #067111",
"<+	c #027909",
"[+	c #008001",
"}+	c #15731B",
"|+	c #838985",
"1+	c #E6E6E7",
"2+	c #DAD9D7",
"3+	c #B3AC9F",
"4+	c #ACA495",
"5+	c #AAA293",
"6+	c #89847A",
"7+	c #333B43",
"8+	c #2A2F35",
"9+	c #0B101A",
"0+	c #222934",
"a+	c #20262D",
"b+	c #06090F",
"c+	c #21272D",
"d+	c #222933",
"e+	c #0C121B",
"f+	c #0C131F",
"g+	c #141B2A",
"h+	c #282F39",
"i+	c #2C343D",
"j+	c #1B2E2E",
"k+	c #143029",
"l+	c #027A07",
"m+	c #28772E",
"n+	c #72766F",
"o+	c #A19A8E",
"p+	c #7F7E7C",
"q+	c #797876",
"r+	c #676664",
"s+	c #686764",
"t+	c #5E5E5D",
"u+	c #474A4C",
"v+	c #404448",
"w+	c #303840",
"x+	c #30373F",
"y+	c #0C121D",
"z+	c #212832",
"A+	c #2C333B",
"B+	c #0C121C",
"C+	c #242A30",
"D+	c #212933",
"E+	c #141C2A",
"F+	c #272F38",
"G+	c #1B312E",
"H+	c #133128",
"I+	c #067112",
"J+	c #017C05",
"K+	c #097B0F",
"L+	c #1D7421",
"M+	c #818582",
"N+	c #A59E8F",
"O+	c #908B7F",
"P+	c #333A42",
"Q+	c #353C43",
"R+	c #030408",
"S+	c #080C11",
"T+	c #04060C",
"U+	c #212833",
"V+	c #151C2B",
"W+	c #272E38",
"X+	c #2D343D",
"Y+	c #1C332E",
"Z+	c #123327",
"`+	c #067012",
" @	c #017D04",
".@	c #017F02",
"+@	c #0A7A12",
"@@	c #217525",
"#@	c #505851",
"$@	c #676861",
"%@	c #696969",
"&@	c #5A5B5B",
"*@	c #3E4347",
"=@	c #3B4045",
"-@	c #313941",
";@	c #22282E",
">@	c #060B17",
",@	c #0F1727",
"'@	c #2A3038",
")@	c #1E2230",
"!@	c #096D16",
"~@	c #007E02",
"{@	c #207524",
"]@	c #555C54",
"^@	c #A0998B",
"/@	c #948F83",
"(@	c #3C4146",
"_@	c #323A41",
":@	c #323941",
"<@	c #2F363E",
"[@	c #1F252B",
"}@	c #080E1B",
"|@	c #232B35",
"1@	c #545557",
"2@	c #14711E",
"3@	c #237427",
"4@	c #676A61",
"5@	c #A19A8D",
"6@	c #999386",
"7@	c #474A4D",
"8@	c #41454A",
"9@	c #3A4046",
"0@	c #303841",
"a@	c #060C17",
"b@	c #555658",
"c@	c #43474C",
"d@	c #077C0D",
"e@	c #445F46",
"f@	c #938E82",
"g@	c #5D5D5D",
"h@	c #59595B",
"i@	c #58585A",
"j@	c #525356",
"k@	c #3F4449",
"l@	c #404449",
"m@	c #383D43",
"n@	c #21272E",
"o@	c #111721",
"p@	c #087C0D",
"q@	c #285336",
"r@	c #385441",
"s@	c #57575A",
"t@	c #424244",
"u@	c #171924",
"v@	c #252C37",
"w@	c #171E2C",
"x@	c #2E363E",
"y@	c #0F7717",
"z@	c #1C5027",
"A@	c #024A10",
"B@	c #1D402F",
"C@	c #252A37",
"D@	c #171F2C",
"E@	c #036E11",
"F@	c #1D402E",
"G@	c #252937",
"H@	c #18202D",
"I@	c #2E353E",
"J@	c #036F10",
"K@	c #1D422E",
"L@	c #1E1E31",
"M@	c #1A1F2E",
"N@	c #046F11",
"O@	c #08571C",
"P@	c #1D442E",
"Q@	c #252837",
"R@	c #202732",
"S@	c #1C432D",
"T@	c #19202D",
"U@	c #0E1627",
"V@	c #272F39",
"W@	c #03700F",
"X@	c #1B442D",
"Y@	c #19212E",
"Z@	c #1C2430",
"`@	c #535456",
" #	c #02710E",
".#	c #1B442C",
"+#	c #262E37",
"@#	c #161E2C",
"##	c #4F5052",
"$#	c #14711F",
"%#	c #02720E",
"&#	c #1A452B",
"*#	c #222234",
"=#	c #212835",
"-#	c #827E75",
";#	c #605E5D",
">#	c #10711D",
",#	c #03720E",
"'#	c #046914",
")#	c #16432A",
"!#	c #66615F",
"~#	c #476F45",
"{#	c #037B0C",
"]#	c #03730D",
"^#	c #0A6C1B",
"/#	c #037B0B",
"                                                                                              ",
"                                                                                              ",
"                                                                                              ",
"                                                                                              ",
"                                                                                              ",
"                                                                                              ",
"                              .                                                               ",
"                            + @ # .                                                           ",
"                          $ % & * = - .                                                       ",
"                        . ; > , ' ) ! ~ .                                                     ",
"                        . { ] ^ / ( _ : < [ .                                                 ",
"                        . { } | 1 2 3 _ 4 5 6 .                                               ",
"                        . { } 7 8 9 0 ( a b 4 c .                                             ",
"                        . { } 7 d e f g h ( _ i j [                                           ",
"                        . { } 7 k l m n o h p _ q r s [ . . . . . . .                         ",
"                        . { } 7 k l l t u o h v w x y z A B C D E C F G . . . . .             ",
"                        . { } 7 k l l l H I J J v n K L M N O P Q R S T U V V V W X           ",
"                        . { } 7 k l l l Y Z `  ...+.@.#.$.%.&.*.=.-.;.>.,.'.'.'.).!.~.{.V ].  ",
"                        . { } 7 k l l Y ^./.(._._.(.:.Z k <.[.}.|.1.2.3.4.5.5.5.6.7.8.9.0.a.b.",
"                          c.d.e.f.g.l h.i.j.k.l.l.m.n.o.p.q.r.s.t.t.u.v.w.w.w.w.x.y.z.A.B.C.D.",
"                    E.F.G.H.I.J.K.L.u.M.N.O.P.Q.Q.R.S.T.U.V.W.w.X.X.X.Y.Y.Y.Z.`.z.A. +.+++@+  ",
"                    #+$+%+&+*+=+-+;+>+,+N.'+)+!+!+)+~+{+]+Y.Y.Y.Y.Y.Y.Y.y.^+z./+(+_+:+<+@+    ",
"                [+}+|+1+2+3+4+4+5+6+7+8+9+0+a+b+b+c+d+e+f+Y.Y.Y.Y.Y.`.g+h+i+j+k+:+l+@+        ",
"              @+m+n+o+p+q+r+s+t+u+v+w+x+'+y+z+A+A+z+B+C+D+g+y.Y.^+E+F+i+G+H+I+J+@+            ",
"          F.K+L+M+2+=+N+O+P+Q+P+w+w+w+w+w+c+R+S+S+T+a+h h h U+V+W+X+Y+Z+`+ @@+                ",
"      .@+@@@#@$@I.%@&@*@=@w+w+w+w+w+w+w+-@;@>@!+,@,@Y.W+w+w+h h '@)@!@~@@+                    ",
"    .@{@]@$@^@/@(@_@:@w+w+w+w+w+w+w+w+w+<@[@}@Y.Y.Y.,@|@h w+w+J 1@2 2@                        ",
"  D.3@4@5@6@7@8@3 3 3 9@w+w+w+w+w+w+w+0@'+a@Y.Y.Y.Y.Y.Y.W+w+w+J b@c@2@                        ",
"  d@e@f@g@h@i@i@i@i@i@j@k@k@k@k@k@k@l@m@n@o@Y.Y.Y.Y.Y.,@W+w+w+J b@c@2@                        ",
"    p@V ~.~.~.~.~.~.q@r@'.'.'.'.'.'.s@t@u@v@w@X.Y.Y.Y.X.0+x@w+J b@c@2@                        ",
"                    . y@V V V V V V V z@A@B@C@D@X.Y.Y.Y.,@F+w+h b@c@2@                        ",
"                        . . . . . . . . [ E@F@G@H@,@Y.Y.X.U+I@J b@c@2@                        ",
"                                          . J@K@L@M@H@X.Y.w.h+w+b@c@2@                        ",
"                                            . N@O@P@Q@H@,@x.R@i+b@c@2@                        ",
"                                              . [ J@S@G@T@,@U@V@b@c@2@                        ",
"                                                  . W@X@G@Y@U@Z@`@c@2@                        ",
"                                                    .  #.#G@+#@###2 $#                        ",
"                                                      . %#&#*#=#-#;#>#                        ",
"                                                        . ,#'#)#!#~#{#                        ",
"                                                          . . ]#^#/#                          ",
"                                                                .                             ",
"                                                                                              ",
"                                                                                              ",
"                                                                                              ",
"                                                                                              ",
"                                                                                              ",
"                                                                                              "};
