/* XPM */
static xpm_row_t xpm_shuriken4[] = {
"47 47 7 1",
" 	c None",
".	c #303840",
"+	c #B0A898",
"@	c #F8F8F8",
"#	c #606060",
"$	c #101828",
"%	c #000000",
"                                               ",
"                                               ",
"                                               ",
"                                               ",
"                                               ",
"                                               ",
"                                               ",
"                               ..              ",
"                             ..+@.             ",
"                            .++##.             ",
"                           .+##.#.             ",
"                         ..+##..#.             ",
"                        .@+++#..#.             ",
"                       .+####...#.             ",
"                     ..@++++....#.             ",
"            .........@+++++.....#.             ",
"      ......+@@+@@+.+#####......#.             ",
"  ....#######++#++##$%%%%%......#.             ",
" .#.........####++##%$...$%.....#.             ",
"  .##..............%$.%%%.$%..$$#.             ",
"   ..##............%.%$$$%.%$$...#.            ",
"     ..##..........%.%$$$%.%......#..          ",
"       ..##........%$.%%%.$%$$.....##.         ",
"         ..##....$$.%$...$%$$$$$.....#.        ",
"           ....$$....%%%%%$$$$$$$$$...#.       ",
"             $$.....$$$$$%$$$$$$$$$$$..#..     ",
"             .#.....$$$$$%$$$$$$$$$$$$$$##..   ",
"             .#....$$$$$$$%$$$$$$$$$$$$$$$##.  ",
"             .#....$$$$$$$%$$$$$$$$.........#. ",
"             .#....$$$$$$$.%.......$$$$$$$$$$  ",
"             .#...$$$$$$$.$%$$$$$$$            ",
"             .#...$$$$$$.$                     ",
"             .#..$$$$$$.$                      ",
"             .#..$$$$.$$                       ",
"             .#.$$$$.$                         ",
"             .#.$$$.$                          ",
"             .#$$$.$                           ",
"             .#$..$                            ",
"             .+.$$                             ",
"              .$                               ",
"                                               ",
"                                               ",
"                                               ",
"                                               ",
"                                               ",
"                                               ",
"                                               "};
