/* XPM */
static char * C:\Users\ruial\Desktop\Letras Design\LetraW_xpm[] = {
"147 119 3 1",
" 	c None",
".	c #FE0000",
"+	c #FF0000",
"                                                                                                                                                   ",
"                                                                                                                                                   ",
"                                                                                                                                                   ",
"                                                                                                                                                   ",
"                                                                                                                                                   ",
"                                                                                                                                                   ",
"                                                                                                                                                   ",
"                                                                                                                                                   ",
"                                                                                                                                                   ",
"                                                                                                                                                   ",
"                                                                                                                                                   ",
"            ............                                          ................                                         ............            ",
"           ..++++++++++..                                         .++++++++++++++.                                        .+++++++++++.            ",
"            .+++++++++++.                                        .++++++++++++++++.                                       .+++++++++++.            ",
"            .+++++++++++.                                        .++++++++++++++++.                                       .+++++++++++.            ",
"            .+++++++++++.                                        .++++++++++++++++.                                      .+++++++++++.             ",
"            ..++++++++++.                                       ..++++++++++++++++.                                      .+++++++++++.             ",
"             .+++++++++++.                                      .++++++++++++++++++.                                     .+++++++++++.             ",
"             .+++++++++++.                                      .++++++++++++++++++.                                     .+++++++++++.             ",
"             .+++++++++++.                                      .++++++++++++++++++.                                    ..++++++++++.              ",
"             ..++++++++++.                                     ..++++++++++++++++++..                                   .+++++++++++.              ",
"              .++++++++++..                                    .++++++++++++++++++++.                                   .+++++++++++.              ",
"              .+++++++++++.                                    .++++++++++++++++++++.                                   .++++++++++..              ",
"              .+++++++++++.                                    .++++++++...+++++++++.                                  ..++++++++++.               ",
"               .++++++++++.                                   .+++++++++...+++++++++..                                 .+++++++++++.               ",
"               .++++++++++..                                  .++++++++.. .++++++++++.                                 .+++++++++++.               ",
"               .+++++++++++.                                  .++++++++.  .++++++++++.                                 .++++++++++..               ",
"               .+++++++++++.                                 ..++++++++.   .+++++++++.                                 .++++++++++.                ",
"                .++++++++++.                                 .+++++++++.   .++++++++++.                               .+++++++++++.                ",
"                .++++++++++.                                 .++++++++.    .++++++++++.                               .+++++++++++.                ",
"                .+++++++++++.                                .++++++++.    ..+++++++++.                               .++++++++++..                ",
"                ..++++++++++.                               .+++++++++.     .+++++++++.                               .++++++++++.                 ",
"                 .++++++++++.                               .+++++++++.     .++++++++++.                             .+++++++++++.                 ",
"                 .++++++++++.                               .++++++++.      .++++++++++.                             .+++++++++++.                 ",
"                 .++++++++++..                              .++++++++.       .+++++++++.                             .++++++++++.                  ",
"                 ..++++++++++.                             .+++++++++.       .+++++++++..                            .++++++++++.                  ",
"                  .++++++++++.                             .++++++++..       .++++++++++.                           ..++++++++++.                  ",
"                  .++++++++++.                             .++++++++.        .++++++++++.                           .+++++++++++.                  ",
"                  .++++++++++.                            ..++++++++.         .+++++++++.                           .++++++++++.                   ",
"                  ..++++++++++.                           .+++++++++.         .+++++++++..                          .++++++++++.                   ",
"                   .++++++++++.                           .++++++++.          .++++++++++.                         ..++++++++++.                   ",
"                   .++++++++++.                           .++++++++.          ..+++++++++.                         .++++++++++..                   ",
"                   .++++++++++.                          .+++++++++.           .+++++++++.                         .++++++++++.                    ",
"                    .+++++++++..                         .++++++++..           .++++++++++.                        .++++++++++.                    ",
"                    .++++++++++.                         .++++++++.            .++++++++++.                        .++++++++++.                    ",
"                    .++++++++++.                        ..++++++++.            ..+++++++++.                       .++++++++++..                    ",
"                    .++++++++++.                        .+++++++++.             .+++++++++.                       .++++++++++.                     ",
"                     .+++++++++..                       .++++++++..             .++++++++++.                      .++++++++++.                     ",
"                     .++++++++++.                       .++++++++.              .++++++++++.                      .++++++++++.                     ",
"                     .++++++++++.                      ..++++++++.               .+++++++++.                     ..+++++++++..                     ",
"                     ..+++++++++.                      .+++++++++.               .+++++++++..                    .++++++++++.                      ",
"                      .+++++++++.                      .++++++++.                .++++++++++.                    .++++++++++.                      ",
"                      .++++++++++.                     .++++++++.                ..+++++++++.                    .++++++++++.                      ",
"                      .++++++++++.                    .+++++++++.                 .+++++++++.                   ..+++++++++.                       ",
"                      ..+++++++++.                    .++++++++..                 .+++++++++..                  .++++++++++.                       ",
"                       .+++++++++.                    .++++++++.                  .++++++++++.                  .++++++++++.                       ",
"                       .+++++++++..                  ..++++++++.                  ..+++++++++.                  .++++++++++.                       ",
"                       .++++++++++.                  .+++++++++.                   .+++++++++.                  .+++++++++.                        ",
"                       ..+++++++++.                  .++++++++.                    .++++++++++.                .++++++++++.                        ",
"                        .+++++++++.                  .++++++++.                    .++++++++++.                .++++++++++.                        ",
"                        .+++++++++..                .+++++++++.                     .+++++++++.                .+++++++++..                        ",
"                        .++++++++++.                .++++++++..                     .+++++++++.                .+++++++++.                         ",
"                         .+++++++++.                .++++++++.                      .++++++++++.              .++++++++++.                         ",
"                         .+++++++++.               ..++++++++.                      ..+++++++++.              .++++++++++.                         ",
"                         .+++++++++.               .+++++++++.                       .+++++++++.              .+++++++++..                         ",
"                         .+++++++++..              .++++++++..                       .+++++++++..             .+++++++++.                          ",
"                          .+++++++++.              .++++++++.                        .++++++++++.            ..+++++++++.                          ",
"                          .+++++++++.             ..++++++++.                        ..+++++++++.            .++++++++++.                          ",
"                          .+++++++++.             .+++++++++.                         .+++++++++.            .+++++++++..                          ",
"                          ..++++++++..            .++++++++.                          .++++++++++.           .+++++++++.                           ",
"                           .+++++++++.            .++++++++.                          .++++++++++.          ..+++++++++.                           ",
"                           .+++++++++.           .+++++++++.                           .+++++++++.          .++++++++++.                           ",
"                           .+++++++++.           .++++++++..                           .+++++++++.          .+++++++++.                            ",
"                           ..++++++++.           .++++++++.                            .++++++++++.         .+++++++++.                            ",
"                            .+++++++++.         ..++++++++.                            .++++++++++.        ..+++++++++.                            ",
"                            .+++++++++.         .+++++++++.                             .+++++++++.        .++++++++++.                            ",
"                            .+++++++++.         .++++++++.                              .+++++++++.        .+++++++++.                             ",
"                            ..++++++++.         .++++++++.                              .++++++++++.       .+++++++++.                             ",
"                             .++++++++..       .+++++++++.                              ..+++++++++.       .+++++++++.                             ",
"                             .+++++++++.       .++++++++..                               .+++++++++.      .+++++++++..                             ",
"                             .+++++++++.       .++++++++.                                .+++++++++.      .+++++++++.                              ",
"                              .++++++++.      ..++++++++.                                .+++++++++..     .+++++++++.                              ",
"                              .++++++++.      .+++++++++.                                ..+++++++++.     .+++++++++.                              ",
"                              .+++++++++.     .++++++++..                                 .+++++++++.    ..++++++++..                              ",
"                              .+++++++++.     .++++++++.                                  .+++++++++.    .+++++++++.                               ",
"                               .++++++++.    ..++++++++.                                  .+++++++++.    .+++++++++.                               ",
"                               .++++++++.    .+++++++++.                                   .++++++++..   .+++++++++.                               ",
"                               .++++++++..   .++++++++.                                    .+++++++++.  ..++++++++..                               ",
"                               ..++++++++.   .++++++++.                                    .+++++++++.  .+++++++++.                                ",
"                                .++++++++.  .+++++++++.                                    ..++++++++.  .+++++++++.                                ",
"                                .++++++++.  .++++++++..                                     .++++++++.  .+++++++++.                                ",
"                                .++++++++....++++++++.                                      .++++++++....++++++++.                                 ",
"                                ..++++++++...++++++++.                                      .+++++++++..+++++++++.                                 ",
"                                 .++++++++..+++++++++.                                      ..+++++++++.+++++++++.                                 ",
"                                 .++++++++++++++++++.                                        .+++++++++++++++++++.                                 ",
"                                 .++++++++++++++++++.                                        .++++++++++++++++++.                                  ",
"                                 ..+++++++++++++++++.                                        .++++++++++++++++++.                                  ",
"                                  .++++++++++++++++..                                         .+++++++++++++++++.                                  ",
"                                  .++++++++++++++++.                                          .++++++++++++++++..                                  ",
"                                  .++++++++++++++++.                                          .++++++++++++++++.                                   ",
"                                   .+++++++++++++++.                                          ..+++++++++++++++.                                   ",
"                                   .++++++++++++++..                                           .+++++++++++++++.                                   ",
"                                   .++++++++++++++.                                            .++++++++++++++..                                   ",
"                                   .++++++++++++++.                                            .++++++++++++++.                                    ",
"                                    .+++++++++++++.                                            ..+++++++++++++.                                    ",
"                                    .++++++++++++.                                              .+++++++++++++.                                    ",
"                                    ..............                                              ..............                                     ",
"                                      ...........                                                 ...........                                      ",
"                                                                                                                                                   ",
"                                                                                                                                                   ",
"                                                                                                                                                   ",
"                                                                                                                                                   ",
"                                                                                                                                                   ",
"                                                                                                                                                   ",
"                                                                                                                                                   ",
"                                                                                                                                                   ",
"                                                                                                                                                   ",
"                                                                                                                                                   ",
"                                                                                                                                                   "};
