/* XPM */
static char * C:\Users\ruial\Desktop\Letras Design\LetraG_xpm[] = {
"111 121 3 1",
" 	c None",
".	c #FE0000",
"+	c #FF0000",
"                                                                                                               ",
"                                                                                                               ",
"                                                                                                               ",
"                                                                                                               ",
"                                                                                                               ",
"                                                                                                               ",
"                                                                                                               ",
"                                                                                                               ",
"                                                                                                               ",
"                                                                                                               ",
"                                                                                                               ",
"                                                    ..............                                             ",
"                                              .......++++++++++++.......                                       ",
"                                          .....++++++++++++++++++++++++....                                    ",
"                                       ....++++++++++++++++++++++++++++++++...                                 ",
"                                     ...+++++++++++++++++++++++++++++++++++++...                               ",
"                                   ..+++++++++++++++++++++++++++++++++++++++++++..                             ",
"                                 ..+++++++++++++++++++++++++++++++++++++++++++++++..                           ",
"                               ..++++++++++++++++++++++++++++++++++++++++++++++++++..                          ",
"                              ..+++++++++++++++++++++++++++++++++++++++++++++++++++++..                        ",
"                            ..++++++++++++++++++++++++++++++++++++++++++++++++++++++++..                       ",
"                           ..+++++++++++++++++++++++++++......+++++++++++++++++++++++++..                      ",
"                          ..+++++++++++++++++++++...................++++++++++++++++++++..                     ",
"                         ..++++++++++++++++++....                  ....++++++++++++++++++..                    ",
"                        ..+++++++++++++++++...                         ...++++++++++++++++..                   ",
"                       ..++++++++++++++++..                              ..++++++++++++++++.                   ",
"                      ..+++++++++++++++..                                  ..+++++++++++++++.                  ",
"                     ..++++++++++++++..                                      ..+++++++++++++..                 ",
"                     .++++++++++++++..                                        ..+++++++++++++.                 ",
"                    .++++++++++++++.                                           ..++++++++++++..                ",
"                   ..+++++++++++++.                                             ..++++++++++++.                ",
"                   .+++++++++++++.                                               ..+++++++++++..               ",
"                  .+++++++++++++.                                                 .++++++++++++.               ",
"                  .++++++++++++.                                                   .+++++++++++.               ",
"                 .++++++++++++..                                                   .++++++++++++.              ",
"                 .++++++++++++.                                                     .+++++++++++.              ",
"                .++++++++++++.                                                      .+++++++++++..             ",
"                .+++++++++++..                                                       .+++++++++++.             ",
"               ..+++++++++++.                                                        .+++++++++++.             ",
"               .+++++++++++.                                                         ..++++++++...             ",
"               .+++++++++++.                                                          .+++++....               ",
"              .+++++++++++..                                                          ......                   ",
"              .+++++++++++.                                                            .                       ",
"              .+++++++++++.                                                                                    ",
"             .+++++++++++.                                                                                     ",
"             .+++++++++++.                                                                                     ",
"             .+++++++++++.                                                                                     ",
"             .++++++++++.                                                                                      ",
"            .+++++++++++.                                                                                      ",
"            .+++++++++++.                                                                                      ",
"            .+++++++++++.                                                                                      ",
"            .++++++++++..                                                                                      ",
"            .++++++++++.                                                                                       ",
"           ..++++++++++.                                                                                       ",
"           ..++++++++++.                                                                                       ",
"           .+++++++++++.                                                                                       ",
"           .+++++++++++.                                                                                       ",
"           .+++++++++++.                                                                                       ",
"           .+++++++++++.                                                                                       ",
"           .+++++++++++.                                                                                       ",
"           .+++++++++++.                                    ........................................           ",
"           .+++++++++++.                                   ..++++++++++++++++++++++++++++++++++++++.           ",
"           .+++++++++++.                                   ..++++++++++++++++++++++++++++++++++++++.           ",
"           .+++++++++++.                                   ..++++++++++++++++++++++++++++++++++++++.           ",
"           .+++++++++++.                                   ..++++++++++++++++++++++++++++++++++++++.           ",
"           .+++++++++++.                                   ..++++++++++++++++++++++++++++++++++++++.           ",
"           .+++++++++++.                                   ..++++++++++++++++++++++++++++++++++++++.           ",
"           .+++++++++++.                                   ..++++++++++++++++++++++++++++++++++++++.           ",
"           ..++++++++++.                                   ..++++++++++++++++++++++++++++++++++++++.           ",
"            .++++++++++..                                  ..++++++++++++++++++++++++++++++++++++++.           ",
"            .+++++++++++.                                   ...........................++++++++++++.           ",
"            .+++++++++++.                                                              .+++++++++++.           ",
"            .+++++++++++.                                                              .+++++++++++.           ",
"            .+++++++++++.                                                              .+++++++++++.           ",
"             .++++++++++..                                                             .+++++++++++.           ",
"             .+++++++++++.                                                             .+++++++++++.           ",
"             .+++++++++++.                                                             .+++++++++++.           ",
"             .+++++++++++.                                                             .+++++++++++.           ",
"              .+++++++++++.                                                            .+++++++++++.           ",
"              .+++++++++++.                                                            .+++++++++++.           ",
"              .+++++++++++..                                                           .+++++++++++.           ",
"               .+++++++++++.                                                           .+++++++++++.           ",
"               .+++++++++++..                                                          .+++++++++++.           ",
"                .+++++++++++.                                                          .+++++++++++.           ",
"                .++++++++++++.                                                         .+++++++++++.           ",
"                ..+++++++++++..                                                        .+++++++++++.           ",
"                 .++++++++++++.                                                        .+++++++++++.           ",
"                  .++++++++++++.                                                       .+++++++++++.           ",
"                  .+++++++++++++.                                                      .+++++++++++.           ",
"                   .+++++++++++++.                                                    ..+++++++++++.           ",
"                   ..+++++++++++++.                                                  ..++++++++++++.           ",
"                    .++++++++++++++.                                               ..++++++++++++++.           ",
"                     .++++++++++++++..                                            ..+++++++++++++++.           ",
"                     ..++++++++++++++..                                         ..+++++++++++++++++.           ",
"                      ..+++++++++++++++..                                     ..+++++++++++++++++++.           ",
"                       ..++++++++++++++++..                                ...++++++++++++++++++++.            ",
"                        ..+++++++++++++++++...                          ....++++++++++++++++++++..             ",
"                         ..+++++++++++++++++++....                   ....++++++++++++++++++++++..              ",
"                          ..+++++++++++++++++++++.......      ........++++++++++++++++++++++++.                ",
"                           ..+++++++++++++++++++++++++..........++++++++++++++++++++++++++++..                 ",
"                             ..+++++++++++++++++++++++++++++++++++++++++++++++++++++++++++..                   ",
"                              ..+++++++++++++++++++++++++++++++++++++++++++++++++++++++++..                    ",
"                                ..+++++++++++++++++++++++++++++++++++++++++++++++++++++..                      ",
"                                 ...++++++++++++++++++++++++++++++++++++++++++++++++...                        ",
"                                   ...++++++++++++++++++++++++++++++++++++++++++++...                          ",
"                                      ..++++++++++++++++++++++++++++++++++++++++...                            ",
"                                        ...++++++++++++++++++++++++++++++++++...                               ",
"                                           ....++++++++++++++++++++++++++....                                  ",
"                                              .......++++++++++++++.......                                     ",
"                                                   .................                                           ",
"                                                                                                               ",
"                                                                                                               ",
"                                                                                                               ",
"                                                                                                               ",
"                                                                                                               ",
"                                                                                                               ",
"                                                                                                               ",
"                                                                                                               ",
"                                                                                                               ",
"                                                                                                               ",
"                                                                                                               "};
