/* XPM */
static char * C:\Users\ruial\Desktop\Letras Design\LetraT_xpm[] = {
"99 119 3 1",
" 	c None",
".	c #FE0000",
"+	c #FF0000",
"                                                                                                   ",
"                                                                                                   ",
"                                                                                                   ",
"                                                                                                   ",
"                                                                                                   ",
"                                                                                                   ",
"                                                                                                   ",
"                                                                                                   ",
"                                                                                                   ",
"                                                                                                   ",
"                                                                                                   ",
"           ............................................................................            ",
"           .++++++++++++++++++++++++++++++++++++++++++++++++++++++++++++++++++++++++++.            ",
"           .++++++++++++++++++++++++++++++++++++++++++++++++++++++++++++++++++++++++++.            ",
"           .++++++++++++++++++++++++++++++++++++++++++++++++++++++++++++++++++++++++++.            ",
"           .++++++++++++++++++++++++++++++++++++++++++++++++++++++++++++++++++++++++++.            ",
"           .++++++++++++++++++++++++++++++++++++++++++++++++++++++++++++++++++++++++++.            ",
"           .++++++++++++++++++++++++++++++++++++++++++++++++++++++++++++++++++++++++++.            ",
"           .++++++++++++++++++++++++++++++++++++++++++++++++++++++++++++++++++++++++++.            ",
"           .++++++++++++++++++++++++++++++++++++++++++++++++++++++++++++++++++++++++++.            ",
"           .++++++++++++++++++++++++++++++++++++++++++++++++++++++++++++++++++++++++++.            ",
"           ..............................++++++++++++++++..............................            ",
"            ...............................++++++++++++...............................             ",
"                                           .++++++++++..                                           ",
"                                           .++++++++++..                                           ",
"                                           .++++++++++..                                           ",
"                                           .++++++++++..                                           ",
"                                           .++++++++++..                                           ",
"                                           .++++++++++..                                           ",
"                                           .++++++++++..                                           ",
"                                           .++++++++++..                                           ",
"                                           .++++++++++..                                           ",
"                                           .++++++++++..                                           ",
"                                           .++++++++++..                                           ",
"                                           .++++++++++..                                           ",
"                                           .++++++++++..                                           ",
"                                           .++++++++++..                                           ",
"                                           .++++++++++..                                           ",
"                                           .++++++++++..                                           ",
"                                           .++++++++++..                                           ",
"                                           .++++++++++..                                           ",
"                                           .++++++++++..                                           ",
"                                           .++++++++++..                                           ",
"                                           .++++++++++..                                           ",
"                                           .++++++++++..                                           ",
"                                           .++++++++++..                                           ",
"                                           .++++++++++..                                           ",
"                                           .++++++++++..                                           ",
"                                           .++++++++++..                                           ",
"                                           .++++++++++..                                           ",
"                                           .++++++++++..                                           ",
"                                           .++++++++++..                                           ",
"                                           .++++++++++..                                           ",
"                                           .++++++++++..                                           ",
"                                           .++++++++++..                                           ",
"                                           .++++++++++..                                           ",
"                                           .++++++++++..                                           ",
"                                           .++++++++++..                                           ",
"                                           .++++++++++..                                           ",
"                                           .++++++++++..                                           ",
"                                           .++++++++++..                                           ",
"                                           .++++++++++..                                           ",
"                                           .++++++++++..                                           ",
"                                           .++++++++++..                                           ",
"                                           .++++++++++..                                           ",
"                                           .++++++++++..                                           ",
"                                           .++++++++++..                                           ",
"                                           .++++++++++..                                           ",
"                                           .++++++++++..                                           ",
"                                           .++++++++++..                                           ",
"                                           .++++++++++..                                           ",
"                                           .++++++++++..                                           ",
"                                           .++++++++++..                                           ",
"                                           .++++++++++..                                           ",
"                                           .++++++++++..                                           ",
"                                           .++++++++++..                                           ",
"                                           .++++++++++..                                           ",
"                                           .++++++++++..                                           ",
"                                           .++++++++++..                                           ",
"                                           .++++++++++..                                           ",
"                                           .++++++++++..                                           ",
"                                           .++++++++++..                                           ",
"                                           .++++++++++..                                           ",
"                                           .++++++++++..                                           ",
"                                           .++++++++++..                                           ",
"                                           .++++++++++..                                           ",
"                                           .++++++++++..                                           ",
"                                           .++++++++++..                                           ",
"                                           .++++++++++..                                           ",
"                                           .++++++++++..                                           ",
"                                           .++++++++++..                                           ",
"                                           .++++++++++..                                           ",
"                                           .++++++++++..                                           ",
"                                           .++++++++++..                                           ",
"                                           .++++++++++..                                           ",
"                                           .++++++++++..                                           ",
"                                           .++++++++++..                                           ",
"                                           .++++++++++..                                           ",
"                                           .++++++++++..                                           ",
"                                           .++++++++++..                                           ",
"                                           .++++++++++..                                           ",
"                                           .++++++++++..                                           ",
"                                           .++++++++++..                                           ",
"                                           .++++++++++..                                           ",
"                                           .++++++++++..                                           ",
"                                           .++++++++++..                                           ",
"                                           ............                                            ",
"                                            ..........                                             ",
"                                                                                                   ",
"                                                                                                   ",
"                                                                                                   ",
"                                                                                                   ",
"                                                                                                   ",
"                                                                                                   ",
"                                                                                                   ",
"                                                                                                   ",
"                                                                                                   ",
"                                                                                                   ",
"                                                                                                   "};
