/* XPM */
static xpm_row_t xpm_letraS[] = {
"99 121 3 1",
" 	c None",
".	c #FE0000",
"+	c #FF0000",
"                                                                                                   ",
"                                                                                                   ",
"                                                                                                   ",
"                                                                                                   ",
"                                                                                                   ",
"                                                                                                   ",
"                                                                                                   ",
"                                                                                                   ",
"                                                                                                   ",
"                                                                                                   ",
"                                                                                                   ",
"                                          ..............                                           ",
"                                     .......++++++++++.......                                      ",
"                                 ....++++++++++++++++++++++++....                                  ",
"                               ...++++++++++++++++++++++++++++++...                                ",
"                            ...++++++++++++++++++++++++++++++++++++...                             ",
"                           ..++++++++++++++++++++++++++++++++++++++++..                            ",
"                         ..++++++++++++++++++++++++++++++++++++++++++++..                          ",
"                        .++++++++++++++++++++++++++++++++++++++++++++++++.                         ",
"                      ..++++++++++++++++++++++++++++++++++++++++++++++++++..                       ",
"                     ..++++++++++++++++++++++++++++++++++++++++++++++++++++..                      ",
"                     .+++++++++++++++++++++++++....+++++++++++++++++++++++++..                     ",
"                    .++++++++++++++++++...................+++++++++++++++++++..                    ",
"                   .++++++++++++++++....                  ...+++++++++++++++++.                    ",
"                  ..++++++++++++++...                        ...+++++++++++++++.                   ",
"                  .++++++++++++++..                            ..+++++++++++++++.                  ",
"                 .+++++++++++++..                                ..+++++++++++++.                  ",
"                 .++++++++++++..                                  ..+++++++++++++.                 ",
"                .++++++++++++..                                    ..++++++++++++.                 ",
"                .+++++++++++..                                      .+++++++++++++.                ",
"               ..+++++++++++.                                        .++++++++++++.                ",
"               .+++++++++++..                                        ..+++++++++++..               ",
"               .+++++++++++.                                          .++++++++++++.               ",
"               .+++++++++++.                                           .+++++++++++.               ",
"               .++++++++++.                                            .+++++++++++.               ",
"               .++++++++++.                                            .+++++++++++..              ",
"              ..++++++++++.                                            ..+++++++++++.              ",
"              ..++++++++++.                                             .+++++++++++.              ",
"              ..++++++++++.                                             .+++++++++++.              ",
"               .++++++++++..                                            ..+..........              ",
"               .+++++++++++.                                             .....                     ",
"               .+++++++++++.                                                                       ",
"               .+++++++++++..                                                                      ",
"               .++++++++++++.                                                                      ",
"               ..++++++++++++.                                                                     ",
"                .+++++++++++++.                                                                    ",
"                .++++++++++++++..                                                                  ",
"                 .++++++++++++++...                                                                ",
"                 ..+++++++++++++++...                                                              ",
"                  .++++++++++++++++++...                                                           ",
"                   .+++++++++++++++++++....                                                        ",
"                   ..++++++++++++++++++++++.....                                                   ",
"                    ..+++++++++++++++++++++++++.....                                               ",
"                     ..++++++++++++++++++++++++++++.....                                           ",
"                      ..+++++++++++++++++++++++++++++++.....                                       ",
"                        .++++++++++++++++++++++++++++++++++.....                                   ",
"                         ..++++++++++++++++++++++++++++++++++++....                                ",
"                           ..+++++++++++++++++++++++++++++++++++++...                              ",
"                            ...++++++++++++++++++++++++++++++++++++++...                           ",
"                               ...+++++++++++++++++++++++++++++++++++++...                         ",
"                                 ....++++++++++++++++++++++++++++++++++++..                        ",
"                                    ....+++++++++++++++++++++++++++++++++++..                      ",
"                                        ....++++++++++++++++++++++++++++++++..                     ",
"                                            ....++++++++++++++++++++++++++++++.                    ",
"                                               .....+++++++++++++++++++++++++++.                   ",
"                                                    ....++++++++++++++++++++++++.                  ",
"                                                       .....+++++++++++++++++++++.                 ",
"                                                           ....+++++++++++++++++++.                ",
"                                                              ....++++++++++++++++..               ",
"                                                                 ...+++++++++++++++.               ",
"                                                                   ..++++++++++++++..              ",
"                                                                     ..+++++++++++++.              ",
"                                                                      ..++++++++++++..             ",
"                                                                       ..++++++++++++.             ",
"                                                                        .++++++++++++.             ",
"                                                                         .+++++++++++.             ",
"            ............                                                 .++++++++++++.            ",
"           ..++++++++++.                                                  .+++++++++++.            ",
"           .+++++++++++.                                                  .+++++++++++.            ",
"           .+++++++++++.                                                  .+++++++++++.            ",
"           ..+++++++++++.                                                 .+++++++++++.            ",
"            .+++++++++++.                                                 .+++++++++++.            ",
"            .+++++++++++.                                                 ..++++++++++.            ",
"            .+++++++++++..                                                .+++++++++++.            ",
"            .++++++++++++.                                                .+++++++++++.            ",
"            ..+++++++++++.                                                .+++++++++++.            ",
"             .++++++++++++.                                               .++++++++++..            ",
"             .++++++++++++.                                              .+++++++++++.             ",
"             ..++++++++++++.                                             .+++++++++++.             ",
"              .++++++++++++..                                           .++++++++++++.             ",
"              .+++++++++++++..                                          .+++++++++++..             ",
"               .+++++++++++++..                                        .++++++++++++.              ",
"               .++++++++++++++..                                      .++++++++++++..              ",
"                .++++++++++++++..                                    .+++++++++++++.               ",
"                ..+++++++++++++++..                                ..+++++++++++++..               ",
"                 .++++++++++++++++...                             ..++++++++++++++.                ",
"                  .+++++++++++++++++...                        ...+++++++++++++++.                 ",
"                   .++++++++++++++++++....                   ...++++++++++++++++..                 ",
"                   ..++++++++++++++++++++........      ......++++++++++++++++++..                  ",
"                    ..+++++++++++++++++++++++++.........+++++++++++++++++++++++.                   ",
"                      .++++++++++++++++++++++++++++++++++++++++++++++++++++++..                    ",
"                       .++++++++++++++++++++++++++++++++++++++++++++++++++++..                     ",
"                        ..+++++++++++++++++++++++++++++++++++++++++++++++++..                      ",
"                         ..++++++++++++++++++++++++++++++++++++++++++++++..                        ",
"                           ..+++++++++++++++++++++++++++++++++++++++++++..                         ",
"                             ..++++++++++++++++++++++++++++++++++++++...                           ",
"                               ...+++++++++++++++++++++++++++++++++...                             ",
"                                  ....++++++++++++++++++++++++++...                                ",
"                                     .......++++++++++++++......                                   ",
"                                          ..................                                       ",
"                                                                                                   ",
"                                                                                                   ",
"                                                                                                   ",
"                                                                                                   ",
"                                                                                                   ",
"                                                                                                   ",
"                                                                                                   ",
"                                                                                                   ",
"                                                                                                   ",
"                                                                                                   ",
"                                                                                                   "};
