/* XPM */
static char * C:\Users\ruial\Desktop\Letras Design\LetraJ_xpm[] = {
"75 120 3 1",
" 	c None",
".	c #FE0000",
"+	c #FF0000",
"                                                                           ",
"                                                                           ",
"                                                                           ",
"                                                                           ",
"                                                                           ",
"                                                                           ",
"                                                                           ",
"                                                                           ",
"                                                                           ",
"                                                                           ",
"                                                                           ",
"                                                   ............            ",
"                                                   .++++++++++..           ",
"                                                   .++++++++++..           ",
"                                                   .++++++++++..           ",
"                                                   .++++++++++..           ",
"                                                   .++++++++++..           ",
"                                                   .++++++++++..           ",
"                                                   .++++++++++..           ",
"                                                   .++++++++++..           ",
"                                                   .++++++++++..           ",
"                                                   .++++++++++..           ",
"                                                   .++++++++++..           ",
"                                                   .++++++++++..           ",
"                                                   .++++++++++..           ",
"                                                   .++++++++++..           ",
"                                                   .++++++++++..           ",
"                                                   .++++++++++..           ",
"                                                   .++++++++++..           ",
"                                                   .++++++++++..           ",
"                                                   .++++++++++..           ",
"                                                   .++++++++++..           ",
"                                                   .++++++++++..           ",
"                                                   .++++++++++..           ",
"                                                   .++++++++++..           ",
"                                                   .++++++++++..           ",
"                                                   .++++++++++..           ",
"                                                   .++++++++++..           ",
"                                                   .++++++++++..           ",
"                                                   .++++++++++..           ",
"                                                   .++++++++++..           ",
"                                                   .++++++++++..           ",
"                                                   .++++++++++..           ",
"                                                   .++++++++++..           ",
"                                                   .++++++++++..           ",
"                                                   .++++++++++..           ",
"                                                   .++++++++++..           ",
"                                                   .++++++++++..           ",
"                                                   .++++++++++..           ",
"                                                   .++++++++++..           ",
"                                                   .++++++++++..           ",
"                                                   .++++++++++..           ",
"                                                   .++++++++++..           ",
"                                                   .++++++++++..           ",
"                                                   .++++++++++..           ",
"                                                   .++++++++++..           ",
"                                                   .++++++++++..           ",
"                                                   .++++++++++..           ",
"                                                   .++++++++++..           ",
"                                                   .++++++++++..           ",
"                                                   .++++++++++..           ",
"                                                   .++++++++++..           ",
"                                                   .++++++++++..           ",
"                                                   .++++++++++..           ",
"                                                   .++++++++++..           ",
"                                                   .++++++++++..           ",
"                                                   .++++++++++..           ",
"                                                   .++++++++++..           ",
"                                                   .++++++++++..           ",
"                                                   .++++++++++..           ",
"                                                   .++++++++++..           ",
"                                                   .++++++++++..           ",
"                                                   .++++++++++..           ",
"                                                   .++++++++++..           ",
"                                                   .++++++++++..           ",
"                                                   .++++++++++..           ",
"                                                   .++++++++++..           ",
"                                                   .++++++++++..           ",
"                                                   .++++++++++..           ",
"               .......                             .++++++++++..           ",
"           .....+++++..                            .++++++++++.            ",
"           .++++++++++.                            .++++++++++.            ",
"           .++++++++++.                            .++++++++++.            ",
"           .++++++++++.                            .++++++++++.            ",
"           .++++++++++.                           ..++++++++++.            ",
"           .++++++++++.                           .+++++++++++.            ",
"           ..+++++++++.                           .+++++++++++.            ",
"            .++++++++++.                          .+++++++++++.            ",
"            .++++++++++.                          .+++++++++++.            ",
"            .++++++++++.                         .+++++++++++.             ",
"            .+++++++++++.                        .+++++++++++.             ",
"            .+++++++++++.                       ..+++++++++++.             ",
"             .+++++++++++.                      .++++++++++++.             ",
"             .+++++++++++..                    .++++++++++++.              ",
"             .++++++++++++..                  .+++++++++++++.              ",
"              .+++++++++++++.               ..+++++++++++++.               ",
"              .++++++++++++++...          ..+++++++++++++++.               ",
"               .+++++++++++++++...........++++++++++++++++.                ",
"               .++++++++++++++++++++++++++++++++++++++++++.                ",
"                .++++++++++++++++++++++++++++++++++++++++.                 ",
"                 .++++++++++++++++++++++++++++++++++++++.                  ",
"                 ..++++++++++++++++++++++++++++++++++++.                   ",
"                   .++++++++++++++++++++++++++++++++++.                    ",
"                    .+++++++++++++++++++++++++++++++..                     ",
"                     ..++++++++++++++++++++++++++++..                      ",
"                       ..++++++++++++++++++++++++..                        ",
"                         ...++++++++++++++++++...                          ",
"                           ......+++++++......                             ",
"                                .........                                  ",
"                                                                           ",
"                                                                           ",
"                                                                           ",
"                                                                           ",
"                                                                           ",
"                                                                           ",
"                                                                           ",
"                                                                           ",
"                                                                           ",
"                                                                           ",
"                                                                           "};
