/* XPM */
static char * C:\Users\ruial\Desktop\Letras Design\LetraQ_xpm[] = {
"117 127 3 1",
" 	c None",
".	c #FE0000",
"+	c #FF0000",
"                                                                                                                     ",
"                                                                                                                     ",
"                                                                                                                     ",
"                                                                                                                     ",
"                                                                                                                     ",
"                                                                                                                     ",
"                                                                                                                     ",
"                                                                                                                     ",
"                                                                                                                     ",
"                                                                                                                     ",
"                                                                                                                     ",
"                                                   ............                                                      ",
"                                             ........+++++++++.......                                                ",
"                                          ....++++++++++++++++++++++.....                                            ",
"                                       ...++++++++++++++++++++++++++++++...                                          ",
"                                     ..++++++++++++++++++++++++++++++++++++...                                       ",
"                                   ..++++++++++++++++++++++++++++++++++++++++...                                     ",
"                                 ..++++++++++++++++++++++++++++++++++++++++++++..                                    ",
"                               ..++++++++++++++++++++++++++++++++++++++++++++++++..                                  ",
"                              ..+++++++++++++++++++++++++++++++++++++++++++++++++++..                                ",
"                            ..++++++++++++++++++++++++++++++++++++++++++++++++++++++..                               ",
"                           ..++++++++++++++++++++++++++....+++++++++++++++++++++++++++.                              ",
"                          ..++++++++++++++++++++..................+++++++++++++++++++++.                             ",
"                         ..++++++++++++++++++....                ....+++++++++++++++++++.                            ",
"                        ..+++++++++++++++++..                        ...+++++++++++++++++.                           ",
"                       ..++++++++++++++++..                            ...++++++++++++++++.                          ",
"                      ..+++++++++++++++..                                ..++++++++++++++++.                         ",
"                     ..++++++++++++++..                                    ..+++++++++++++++.                        ",
"                     .++++++++++++++..                                      ..++++++++++++++..                       ",
"                    .++++++++++++++.                                          .++++++++++++++.                       ",
"                   ..+++++++++++++.                                            ..+++++++++++++.                      ",
"                   .+++++++++++++.                                              ..+++++++++++++.                     ",
"                  .+++++++++++++.                                                .+++++++++++++.                     ",
"                  .++++++++++++.                                                  .+++++++++++++.                    ",
"                 .++++++++++++.                                                    .++++++++++++.                    ",
"                 .+++++++++++..                                                     .++++++++++++.                   ",
"                .++++++++++++.                                                      .++++++++++++.                   ",
"                .+++++++++++.                                                        .++++++++++++.                  ",
"               .++++++++++++.                                                        ..+++++++++++.                  ",
"               .+++++++++++.                                                          .++++++++++++.                 ",
"              ..+++++++++++.                                                          ..+++++++++++.                 ",
"              .+++++++++++.                                                            .+++++++++++.                 ",
"              .+++++++++++.                                                            .++++++++++++.                ",
"              .++++++++++.                                                              .+++++++++++.                ",
"             .+++++++++++.                                                              .+++++++++++.                ",
"             .+++++++++++.                                                              ..++++++++++..               ",
"             .++++++++++..                                                               .+++++++++++.               ",
"            ..++++++++++.                                                                .+++++++++++.               ",
"            .+++++++++++.                                                                .+++++++++++.               ",
"            .+++++++++++.                                                                ..++++++++++.               ",
"            .+++++++++++.                                                                 .++++++++++..              ",
"            .++++++++++..                                                                 .+++++++++++.              ",
"            .++++++++++.                                                                  .+++++++++++.              ",
"           ..++++++++++.                                                                  .+++++++++++.              ",
"           .+++++++++++.                                                                  .+++++++++++.              ",
"           .+++++++++++.                                                                  .+++++++++++.              ",
"           .+++++++++++.                                                                  ..++++++++++.              ",
"           .+++++++++++.                                                                  ..++++++++++.              ",
"           .+++++++++++.                                                                  ..++++++++++.              ",
"           .+++++++++++.                                                                  ..++++++++++.              ",
"           .+++++++++++.                                                                  ..++++++++++.              ",
"           .+++++++++++.                                                                  ..++++++++++.              ",
"           .+++++++++++.                                                                  ..++++++++++.              ",
"           .+++++++++++.                                                                  ..++++++++++.              ",
"           .+++++++++++.                                                                  ..++++++++++.              ",
"           .+++++++++++.                                                                  .+++++++++++.              ",
"           .+++++++++++.                                                                  .+++++++++++.              ",
"           ..++++++++++.                                                                  .+++++++++++.              ",
"            .++++++++++.                                                                  .+++++++++++.              ",
"            .++++++++++..                                                                 .+++++++++++.              ",
"            .+++++++++++.                                                                 .++++++++++..              ",
"            .+++++++++++.                                                                ..++++++++++.               ",
"            .+++++++++++.                                                                .+++++++++++.               ",
"            ..++++++++++.                                                                .+++++++++++.               ",
"             .++++++++++..                                                               .+++++++++++.               ",
"             .+++++++++++.                                                              ..++++++++++..               ",
"             .+++++++++++.                                                              .+++++++++++.                ",
"             ..++++++++++..                                                             .+++++++++++.                ",
"              .+++++++++++.                                                            ..+++++++++++.                ",
"              .+++++++++++.                                                            .+++++++++++.                 ",
"              .+++++++++++..                                                           .+++++++++++.                 ",
"               .+++++++++++.                                                          .++++++++++++.                 ",
"               .+++++++++++..                               ....                      .+++++++++++.                  ",
"                .+++++++++++.                               .+++...                  .++++++++++++.                  ",
"                .++++++++++++.                              .+++++...               ..+++++++++++.                   ",
"                 .+++++++++++..                            ..++++++++..             .++++++++++++.                   ",
"                 .++++++++++++.                            .+++++++++++..          .++++++++++++.                    ",
"                  .++++++++++++.                           .+++++++++++++..       ..++++++++++++.                    ",
"                  .+++++++++++++.                         ..++++++++++++++..     ..++++++++++++.                     ",
"                   .+++++++++++++.                        .+++++++++++++++++..  ..++++++++++++..                     ",
"                   ..+++++++++++++.                       ...++++++++++++++++....+++++++++++++.                      ",
"                    .++++++++++++++.                        ...++++++++++++++++++++++++++++++.                       ",
"                     .++++++++++++++.                          ...++++++++++++++++++++++++++..                       ",
"                     ..++++++++++++++..                          ...++++++++++++++++++++++++.                        ",
"                      ..++++++++++++++...                          ...+++++++++++++++++++++.                         ",
"                       ..+++++++++++++++...                          .++++++++++++++++++++.                          ",
"                        ..++++++++++++++++...                        ..++++++++++++++++++.                           ",
"                         ..+++++++++++++++++....                  ....+++++++++++++++++++.                           ",
"                          ..+++++++++++++++++++......        ......++++++++++++++++++++++.                           ",
"                           ..+++++++++++++++++++++++..........++++++++++++++++++++++++++++..                         ",
"                            ..+++++++++++++++++++++++++++++++++++++++++++++++++++++++++++++..                        ",
"                              ..+++++++++++++++++++++++++++++++++++++++++++++++++++++++++++++..                      ",
"                               ..+++++++++++++++++++++++++++++++++++++++++++++++++++++++++++++..                     ",
"                                 ..+++++++++++++++++++++++++++++++++++++++++++++.+++++++++++++++..                   ",
"                                   ..+++++++++++++++++++++++++++++++++++++++++.....+++++++++++++++..                 ",
"                                    ...++++++++++++++++++++++++++++++++++++...     .++++++++++++++++..               ",
"                                       ...+++++++++++++++++++++++++++++++...        ..++++++++++++++++..             ",
"                                         ....++++++++++++++++++++++++....            ..++++++++++++++++..            ",
"                                            ......++++++++++++++......                 ..+++++++++++++++.            ",
"                                                  ...............                       ..+++++++++++++.             ",
"                                                                                          ..+++++++++++.             ",
"                                                                                            ..++++++++.              ",
"                                                                                              ..++++++.              ",
"                                                                                                ..+++..              ",
"                                                                                                  ....               ",
"                                                                                                                     ",
"                                                                                                                     ",
"                                                                                                                     ",
"                                                                                                                     ",
"                                                                                                                     ",
"                                                                                                                     ",
"                                                                                                                     ",
"                                                                                                                     ",
"                                                                                                                     ",
"                                                                                                                     ",
"                                                                                                                     ",
"                                                                                                                     "};
