/* XPM */
static char * C:\Users\ruial\Desktop\Letras Design\LetraO_xpm[] = {
"115 121 3 1",
" 	c None",
".	c #FE0000",
"+	c #FF0000",
"                                                                                                                   ",
"                                                                                                                   ",
"                                                                                                                   ",
"                                                                                                                   ",
"                                                                                                                   ",
"                                                                                                                   ",
"                                                                                                                   ",
"                                                                                                                   ",
"                                                                                                                   ",
"                                                                                                                   ",
"                                                                                                                   ",
"                                                   ............                                                    ",
"                                             .......++++++++++.......                                              ",
"                                          ....++++++++++++++++++++++.....                                          ",
"                                       ...++++++++++++++++++++++++++++++...                                        ",
"                                     ..++++++++++++++++++++++++++++++++++++...                                     ",
"                                   ..++++++++++++++++++++++++++++++++++++++++...                                   ",
"                                 ..++++++++++++++++++++++++++++++++++++++++++++..                                  ",
"                               ..++++++++++++++++++++++++++++++++++++++++++++++++..                                ",
"                              ..+++++++++++++++++++++++++++++++++++++++++++++++++++..                              ",
"                            ..++++++++++++++++++++++++++++++++++++++++++++++++++++++..                             ",
"                           ..++++++++++++++++++++++++++....++++++++++++++++++++++++++..                            ",
"                          ..+++++++++++++++++++++.................+++++++++++++++++++++.                           ",
"                         ..++++++++++++++++++....                ....+++++++++++++++++++.                          ",
"                        ..+++++++++++++++++...                       ...+++++++++++++++++.                         ",
"                       ..++++++++++++++++..                            ...++++++++++++++++.                        ",
"                      ..+++++++++++++++..                                ..++++++++++++++++.                       ",
"                      .++++++++++++++..                                    ..+++++++++++++++.                      ",
"                     .++++++++++++++..                                      ..++++++++++++++..                     ",
"                    .++++++++++++++.                                          .++++++++++++++.                     ",
"                   ..+++++++++++++.                                            ..+++++++++++++.                    ",
"                   .++++++++++++..                                              ..++++++++++++..                   ",
"                  .+++++++++++++.                                                .+++++++++++++.                   ",
"                  .++++++++++++.                                                  .+++++++++++++.                  ",
"                 .++++++++++++.                                                    .++++++++++++.                  ",
"                ..+++++++++++.                                                      .++++++++++++.                 ",
"                .+++++++++++..                                                      .++++++++++++.                 ",
"                .+++++++++++.                                                        .++++++++++++.                ",
"               .+++++++++++..                                                        ..+++++++++++.                ",
"               .+++++++++++.                                                          .+++++++++++..               ",
"              .+++++++++++..                                                          ..+++++++++++.               ",
"              .+++++++++++.                                                            .+++++++++++.               ",
"              .+++++++++++.                                                            .+++++++++++..              ",
"             ..++++++++++..                                                             .+++++++++++.              ",
"             .+++++++++++.                                                              .+++++++++++.              ",
"             .+++++++++++.                                                              ..++++++++++.              ",
"             .++++++++++..                                                               .+++++++++++.             ",
"            ..++++++++++.                                                                .+++++++++++.             ",
"            .+++++++++++.                                                                .+++++++++++.             ",
"            .+++++++++++.                                                                ..++++++++++.             ",
"            .+++++++++++.                                                                 .++++++++++..            ",
"            .++++++++++..                                                                 .+++++++++++.            ",
"            .++++++++++.                                                                  .+++++++++++.            ",
"            .++++++++++.                                                                  .+++++++++++.            ",
"           ..++++++++++.                                                                  .+++++++++++.            ",
"           .+++++++++++.                                                                  .+++++++++++.            ",
"           .+++++++++++.                                                                  ..++++++++++.            ",
"           .+++++++++++.                                                                  ..++++++++++.            ",
"           .+++++++++++.                                                                  ..++++++++++.            ",
"           .+++++++++++.                                                                  ..++++++++++.            ",
"           .+++++++++++.                                                                  ..++++++++++.            ",
"           .+++++++++++.                                                                  ..++++++++++.            ",
"           .+++++++++++.                                                                  ..++++++++++.            ",
"           .+++++++++++.                                                                  ..++++++++++.            ",
"           .+++++++++++.                                                                  ..++++++++++.            ",
"           .+++++++++++.                                                                  .+++++++++++.            ",
"           .+++++++++++.                                                                  .+++++++++++.            ",
"           .+++++++++++.                                                                  .+++++++++++.            ",
"           ..++++++++++.                                                                  .+++++++++++.            ",
"            .++++++++++.                                                                  .+++++++++++.            ",
"            .++++++++++..                                                                 .++++++++++..            ",
"            .+++++++++++.                                                                 .++++++++++.             ",
"            .+++++++++++.                                                                .+++++++++++.             ",
"            ..++++++++++.                                                                .+++++++++++.             ",
"             .++++++++++.                                                                .+++++++++++.             ",
"             .+++++++++++.                                                               .++++++++++..             ",
"             .+++++++++++.                                                              .+++++++++++.              ",
"             ..++++++++++.                                                              .+++++++++++.              ",
"              .+++++++++++.                                                            ..+++++++++++.              ",
"              .+++++++++++.                                                            .+++++++++++.               ",
"              .+++++++++++..                                                           .+++++++++++.               ",
"               .+++++++++++.                                                          .++++++++++++.               ",
"               .+++++++++++..                                                         .+++++++++++.                ",
"                .+++++++++++.                                                        .++++++++++++.                ",
"                .++++++++++++.                                                      ..+++++++++++.                 ",
"                ..+++++++++++..                                                     .++++++++++++.                 ",
"                 .++++++++++++.                                                    .++++++++++++..                 ",
"                 ..++++++++++++.                                                  ..++++++++++++.                  ",
"                  .+++++++++++++.                                                ..++++++++++++.                   ",
"                   .+++++++++++++.                                              ..+++++++++++++.                   ",
"                   ..+++++++++++++.                                            ..+++++++++++++.                    ",
"                    .++++++++++++++.                                          ..+++++++++++++..                    ",
"                     .++++++++++++++.                                        .+++++++++++++++.                     ",
"                     ..++++++++++++++..                                    ..+++++++++++++++.                      ",
"                      ..+++++++++++++++..                                 ..+++++++++++++++.                       ",
"                       ..+++++++++++++++...                             ..++++++++++++++++..                       ",
"                        .+++++++++++++++++...                        ...+++++++++++++++++..                        ",
"                         .++++++++++++++++++....                  ....++++++++++++++++++..                         ",
"                          ..+++++++++++++++++++......        ......++++++++++++++++++++..                          ",
"                           ..+++++++++++++++++++++++..........++++++++++++++++++++++++.                            ",
"                            ..+++++++++++++++++++++++++++++++++++++++++++++++++++++++.                             ",
"                              ..+++++++++++++++++++++++++++++++++++++++++++++++++++..                              ",
"                               ..++++++++++++++++++++++++++++++++++++++++++++++++...                               ",
"                                 ..+++++++++++++++++++++++++++++++++++++++++++++..                                 ",
"                                   ..+++++++++++++++++++++++++++++++++++++++++..                                   ",
"                                    ...++++++++++++++++++++++++++++++++++++...                                     ",
"                                       ...+++++++++++++++++++++++++++++++...                                       ",
"                                         ....++++++++++++++++++++++++....                                          ",
"                                            ......++++++++++++++......                                             ",
"                                                 ................                                                  ",
"                                                                                                                   ",
"                                                                                                                   ",
"                                                                                                                   ",
"                                                                                                                   ",
"                                                                                                                   ",
"                                                                                                                   ",
"                                                                                                                   ",
"                                                                                                                   ",
"                                                                                                                   ",
"                                                                                                                   ",
"                                                                                                                   "};
