/* XPM */
static char * C:\Users\ruial\Desktop\Letras Design\LetraI_xpm[] = {
"35 119 3 1",
" 	c None",
".	c #FE0000",
"+	c #FF0000",
"                                   ",
"                                   ",
"                                   ",
"                                   ",
"                                   ",
"                                   ",
"                                   ",
"                                   ",
"                                   ",
"                                   ",
"                                   ",
"           ............            ",
"           .+++++++++++.           ",
"           .+++++++++++.           ",
"           .+++++++++++.           ",
"           .+++++++++++.           ",
"           .+++++++++++.           ",
"           .+++++++++++.           ",
"           .+++++++++++.           ",
"           .+++++++++++.           ",
"           .+++++++++++.           ",
"           .+++++++++++.           ",
"           .+++++++++++.           ",
"           .+++++++++++.           ",
"           .+++++++++++.           ",
"           .+++++++++++.           ",
"           .+++++++++++.           ",
"           .+++++++++++.           ",
"           .+++++++++++.           ",
"           .+++++++++++.           ",
"           .+++++++++++.           ",
"           .+++++++++++.           ",
"           .+++++++++++.           ",
"           .+++++++++++.           ",
"           .+++++++++++.           ",
"           .+++++++++++.           ",
"           .+++++++++++.           ",
"           .+++++++++++.           ",
"           .+++++++++++.           ",
"           .+++++++++++.           ",
"           .+++++++++++.           ",
"           .+++++++++++.           ",
"           .+++++++++++.           ",
"           .+++++++++++.           ",
"           .+++++++++++.           ",
"           .+++++++++++.           ",
"           .+++++++++++.           ",
"           .+++++++++++.           ",
"           .+++++++++++.           ",
"           .+++++++++++.           ",
"           .+++++++++++.           ",
"           .+++++++++++.           ",
"           .+++++++++++.           ",
"           .+++++++++++.           ",
"           .+++++++++++.           ",
"           .+++++++++++.           ",
"           .+++++++++++.           ",
"           .+++++++++++.           ",
"           .+++++++++++.           ",
"           .+++++++++++.           ",
"           .+++++++++++.           ",
"           .+++++++++++.           ",
"           .+++++++++++.           ",
"           .+++++++++++.           ",
"           .+++++++++++.           ",
"           .+++++++++++.           ",
"           .+++++++++++.           ",
"           .+++++++++++.           ",
"           .+++++++++++.           ",
"           .+++++++++++.           ",
"           .+++++++++++.           ",
"           .+++++++++++.           ",
"           .+++++++++++.           ",
"           .+++++++++++.           ",
"           .+++++++++++.           ",
"           .+++++++++++.           ",
"           .+++++++++++.           ",
"           .+++++++++++.           ",
"           .+++++++++++.           ",
"           .+++++++++++.           ",
"           .+++++++++++.           ",
"           .+++++++++++.           ",
"           .+++++++++++.           ",
"           .+++++++++++.           ",
"           .+++++++++++.           ",
"           .+++++++++++.           ",
"           .+++++++++++.           ",
"           .+++++++++++.           ",
"           .+++++++++++.           ",
"           .+++++++++++.           ",
"           .+++++++++++.           ",
"           .+++++++++++.           ",
"           .+++++++++++.           ",
"           .+++++++++++.           ",
"           .+++++++++++.           ",
"           .+++++++++++.           ",
"           .+++++++++++.           ",
"           .+++++++++++.           ",
"           .+++++++++++.           ",
"           .+++++++++++.           ",
"           .+++++++++++.           ",
"           .+++++++++++.           ",
"           .+++++++++++.           ",
"           .+++++++++++.           ",
"           .+++++++++++.           ",
"           .+++++++++++.           ",
"           .............           ",
"            ..........             ",
"                                   ",
"                                   ",
"                                   ",
"                                   ",
"                                   ",
"                                   ",
"                                   ",
"                                   ",
"                                   ",
"                                   ",
"                                   "};
