/* XPM */
static xpm_row_t xpm_letraB[] = {
"95 119 3 1",
" 	c None",
".	c #FE0000",
"+	c #FF0000",
"                                                                                               ",
"                                                                                               ",
"                                                                                               ",
"                                                                                               ",
"                                                                                               ",
"                                                                                               ",
"                                                                                               ",
"                                                                                               ",
"                                                                                               ",
"                                                                                               ",
"                                                                                               ",
"           ...........................................                                         ",
"           .+++++++++++++++++++++++++++++++++++++++++.......                                   ",
"           .+++++++++++++++++++++++++++++++++++++++++++++++.....                               ",
"           .+++++++++++++++++++++++++++++++++++++++++++++++++++...                             ",
"           .+++++++++++++++++++++++++++++++++++++++++++++++++++++...                           ",
"           .+++++++++++++++++++++++++++++++++++++++++++++++++++++++..                          ",
"           .+++++++++++++++++++++++++++++++++++++++++++++++++++++++++.                         ",
"           .++++++++++++++++++++++++++++++++++++++++++++++++++++++++++..                       ",
"           .+++++++++++++++++++++++++++++++++++++++++++++++++++++++++++..                      ",
"           .++++++++++++++++++++++++++++++++++++++++++++++++++++++++++++.                      ",
"           .+++++++++++++......................++++++++++++++++++++++++++.                     ",
"           .+++++++++++..................................+++++++++++++++++.                    ",
"           .+++++++++++.                                ...+++++++++++++++..                   ",
"           .+++++++++++.                                   ..++++++++++++++.                   ",
"           .+++++++++++.                                     .+++++++++++++..                  ",
"           .+++++++++++.                                      .+++++++++++++.                  ",
"           .+++++++++++.                                       .++++++++++++..                 ",
"           .+++++++++++.                                        .++++++++++++.                 ",
"           .+++++++++++.                                        ..+++++++++++.                 ",
"           .+++++++++++.                                         .+++++++++++.                 ",
"           .+++++++++++.                                         .+++++++++++..                ",
"           .+++++++++++.                                          .+++++++++++.                ",
"           .+++++++++++.                                          .+++++++++++.                ",
"           .+++++++++++.                                          .+++++++++++.                ",
"           .+++++++++++.                                          .+++++++++++.                ",
"           .+++++++++++.                                          .+++++++++++.                ",
"           .+++++++++++.                                          .+++++++++++.                ",
"           .+++++++++++.                                          .+++++++++++.                ",
"           .+++++++++++.                                          .+++++++++++.                ",
"           .+++++++++++.                                          .++++++++++..                ",
"           .+++++++++++.                                          .++++++++++.                 ",
"           .+++++++++++.                                         ..++++++++++.                 ",
"           .+++++++++++.                                         .++++++++++..                 ",
"           .+++++++++++.                                         .++++++++++.                  ",
"           .+++++++++++.                                        .+++++++++++.                  ",
"           .+++++++++++.                                       .+++++++++++.                   ",
"           .+++++++++++.                                      ..++++++++++..                   ",
"           .+++++++++++.                                     ..+++++++++++.                    ",
"           .+++++++++++.                                   ..++++++++++++.                     ",
"           .+++++++++++.                                ...+++++++++++++.                      ",
"           .+++++++++++..                      ..........++++++++++++++.                       ",
"           .++++++++++++..........................+++++++++++++++++++..                        ",
"           .++++++++++++++++++++++++++++++++++++++++++++++++++++++++..                         ",
"           .++++++++++++++++++++++++++++++++++++++++++++++++++++++..                           ",
"           .+++++++++++++++++++++++++++++++++++++++++++++++++++++..                            ",
"           .+++++++++++++++++++++++++++++++++++++++++++++++++++++..                            ",
"           .++++++++++++++++++++++++++++++++++++++++++++++++++++++...                          ",
"           .+++++++++++++++++++++++++++++++++++++++++++++++++++++++++..                        ",
"           .+++++++++++++++++++++++++++++++++++++++++++++++++++++++++++..                      ",
"           .+++++++++++++++++++++++++++++++++++++++++++++++++++++++++++++.                     ",
"           .++++++++++++++++++++++++++++++++++++++++++++++++++++++++++++++..                   ",
"           .++++++++++++................................+++++++++++++++++++..                  ",
"           .+++++++++++.                               .....++++++++++++++++..                 ",
"           .+++++++++++.                                    ..+++++++++++++++..                ",
"           .+++++++++++.                                      ..++++++++++++++.                ",
"           .+++++++++++.                                        ..+++++++++++++.               ",
"           .+++++++++++.                                         ..++++++++++++..              ",
"           .+++++++++++.                                          ..++++++++++++.              ",
"           .+++++++++++.                                           ..++++++++++++.             ",
"           .+++++++++++.                                            .++++++++++++.             ",
"           .+++++++++++.                                             .+++++++++++..            ",
"           .+++++++++++.                                             ..+++++++++++.            ",
"           .+++++++++++.                                              .+++++++++++.            ",
"           .+++++++++++.                                              .+++++++++++.            ",
"           .+++++++++++.                                              ..++++++++++.            ",
"           .+++++++++++.                                               .++++++++++..           ",
"           .+++++++++++.                                               .+++++++++++.           ",
"           .+++++++++++.                                               .+++++++++++.           ",
"           .+++++++++++.                                               .+++++++++++.           ",
"           .+++++++++++.                                               .+++++++++++.           ",
"           .+++++++++++.                                               .+++++++++++.           ",
"           .+++++++++++.                                               .++++++++++..           ",
"           .+++++++++++.                                               .++++++++++..           ",
"           .+++++++++++.                                              .+++++++++++.            ",
"           .+++++++++++.                                              .+++++++++++.            ",
"           .+++++++++++.                                              .+++++++++++.            ",
"           .+++++++++++.                                             .++++++++++++.            ",
"           .+++++++++++.                                             .+++++++++++.             ",
"           .+++++++++++.                                            .++++++++++++.             ",
"           .+++++++++++.                                           .++++++++++++..             ",
"           .+++++++++++.                                          .+++++++++++++.              ",
"           .+++++++++++.                                         .++++++++++++++.              ",
"           .+++++++++++.                                       ..++++++++++++++.               ",
"           .+++++++++++.                                     ..+++++++++++++++..               ",
"           .+++++++++++.                                .....+++++++++++++++++.                ",
"           .++++++++++++.................................++++++++++++++++++++.                 ",
"           .++++++++++++++++++++++++++++++++++++++++++++++++++++++++++++++++..                 ",
"           .+++++++++++++++++++++++++++++++++++++++++++++++++++++++++++++++..                  ",
"           .++++++++++++++++++++++++++++++++++++++++++++++++++++++++++++++..                   ",
"           .+++++++++++++++++++++++++++++++++++++++++++++++++++++++++++++..                    ",
"           .+++++++++++++++++++++++++++++++++++++++++++++++++++++++++++..                      ",
"           .+++++++++++++++++++++++++++++++++++++++++++++++++++++++++...                       ",
"           .+++++++++++++++++++++++++++++++++++++++++++++++++++++++...                         ",
"           .++++++++++++++++++++++++++++++++++++++++++++++++++++....                           ",
"           .+++++++++++++++++++++++++++++++++++++++++++++++......                              ",
"           .................................................                                   ",
"            .....................................                                              ",
"                                                                                               ",
"                                                                                               ",
"                                                                                               ",
"                                                                                               ",
"                                                                                               ",
"                                                                                               ",
"                                                                                               ",
"                                                                                               ",
"                                                                                               ",
"                                                                                               ",
"                                                                                               "};
