/* XPM */
static char * C:\Users\ruial\Desktop\Letras Design\LetraU_xpm[] = {
"98 120 3 1",
" 	c None",
".	c #FE0000",
"+	c #FF0000",
"                                                                                                  ",
"                                                                                                  ",
"                                                                                                  ",
"                                                                                                  ",
"                                                                                                  ",
"                                                                                                  ",
"                                                                                                  ",
"                                                                                                  ",
"                                                                                                  ",
"                                                                                                  ",
"                                                                                                  ",
"           ............                                                   ............            ",
"           .+++++++++++.                                                  .++++++++++.            ",
"           .+++++++++++.                                                  .++++++++++..           ",
"           .+++++++++++.                                                  .++++++++++..           ",
"           .+++++++++++.                                                  .++++++++++..           ",
"           .+++++++++++.                                                  .++++++++++..           ",
"           .+++++++++++.                                                  .++++++++++..           ",
"           .+++++++++++.                                                  .++++++++++..           ",
"           .+++++++++++.                                                  .++++++++++..           ",
"           .+++++++++++.                                                  .++++++++++..           ",
"           .+++++++++++.                                                  .++++++++++..           ",
"           .+++++++++++.                                                  .++++++++++..           ",
"           .+++++++++++.                                                  .++++++++++..           ",
"           .+++++++++++.                                                  .++++++++++..           ",
"           .+++++++++++.                                                  .++++++++++..           ",
"           .+++++++++++.                                                  .++++++++++..           ",
"           .+++++++++++.                                                  .++++++++++..           ",
"           .+++++++++++.                                                  .++++++++++..           ",
"           .+++++++++++.                                                  .++++++++++..           ",
"           .+++++++++++.                                                  .++++++++++..           ",
"           .+++++++++++.                                                  .++++++++++..           ",
"           .+++++++++++.                                                  .++++++++++..           ",
"           .+++++++++++.                                                  .++++++++++..           ",
"           .+++++++++++.                                                  .++++++++++..           ",
"           .+++++++++++.                                                  .++++++++++..           ",
"           .+++++++++++.                                                  .++++++++++..           ",
"           .+++++++++++.                                                  .++++++++++..           ",
"           .+++++++++++.                                                  .++++++++++..           ",
"           .+++++++++++.                                                  .++++++++++..           ",
"           .+++++++++++.                                                  .++++++++++..           ",
"           .+++++++++++.                                                  .++++++++++..           ",
"           .+++++++++++.                                                  .++++++++++..           ",
"           .+++++++++++.                                                  .++++++++++..           ",
"           .+++++++++++.                                                  .++++++++++..           ",
"           .+++++++++++.                                                  .++++++++++..           ",
"           .+++++++++++.                                                  .++++++++++..           ",
"           .+++++++++++.                                                  .++++++++++..           ",
"           .+++++++++++.                                                  .++++++++++..           ",
"           .+++++++++++.                                                  .++++++++++..           ",
"           .+++++++++++.                                                  .++++++++++..           ",
"           .+++++++++++.                                                  .++++++++++..           ",
"           .+++++++++++.                                                  .++++++++++..           ",
"           .+++++++++++.                                                  .++++++++++..           ",
"           .+++++++++++.                                                  .++++++++++..           ",
"           .+++++++++++.                                                  .++++++++++..           ",
"           .+++++++++++.                                                  .++++++++++..           ",
"           .+++++++++++.                                                  .++++++++++..           ",
"           .+++++++++++.                                                  .++++++++++..           ",
"           .+++++++++++.                                                  .++++++++++..           ",
"           .+++++++++++.                                                  .++++++++++..           ",
"           .+++++++++++.                                                  .++++++++++..           ",
"           .+++++++++++.                                                  .++++++++++..           ",
"           .+++++++++++.                                                  .++++++++++..           ",
"           .+++++++++++.                                                  .++++++++++..           ",
"           .+++++++++++.                                                  .++++++++++..           ",
"           .+++++++++++.                                                  .++++++++++..           ",
"           .+++++++++++.                                                  .++++++++++.            ",
"           .+++++++++++.                                                  .++++++++++.            ",
"           .+++++++++++.                                                  .++++++++++.            ",
"           .+++++++++++.                                                  .++++++++++.            ",
"           .+++++++++++.                                                  .++++++++++.            ",
"           .+++++++++++.                                                 ..++++++++++.            ",
"           .+++++++++++.                                                 .+++++++++++.            ",
"           .+++++++++++.                                                 .+++++++++++.            ",
"           ..++++++++++.                                                 .+++++++++++.            ",
"            .++++++++++.                                                 .+++++++++++.            ",
"            .++++++++++.                                                 .+++++++++++.            ",
"            .+++++++++++.                                                .+++++++++++.            ",
"            .+++++++++++.                                                .++++++++++..            ",
"            .+++++++++++.                                               ..++++++++++..            ",
"            .+++++++++++.                                               .+++++++++++.             ",
"            ..++++++++++..                                              .+++++++++++.             ",
"             .+++++++++++.                                             ..+++++++++++.             ",
"             .+++++++++++.                                             .++++++++++++.             ",
"             .+++++++++++..                                            .+++++++++++.              ",
"             .++++++++++++.                                           .++++++++++++.              ",
"              .+++++++++++..                                          .++++++++++++.              ",
"              .++++++++++++.                                         .++++++++++++..              ",
"              .+++++++++++++.                                       ..++++++++++++.               ",
"               .+++++++++++++.                                     ..+++++++++++++.               ",
"               .++++++++++++++.                                   ..+++++++++++++.                ",
"                .++++++++++++++..                                ..++++++++++++++.                ",
"                .+++++++++++++++..                             ..+++++++++++++++.                 ",
"                 .++++++++++++++++..                         ...+++++++++++++++..                 ",
"                 ..+++++++++++++++++...                   ....+++++++++++++++++.                  ",
"                  .++++++++++++++++++++......       .......+++++++++++++++++++.                   ",
"                   .+++++++++++++++++++++++..........++++++++++++++++++++++++.                    ",
"                    .+++++++++++++++++++++++++++++++++++++++++++++++++++++++.                     ",
"                     .+++++++++++++++++++++++++++++++++++++++++++++++++++++.                      ",
"                      .+++++++++++++++++++++++++++++++++++++++++++++++++++.                       ",
"                       ..+++++++++++++++++++++++++++++++++++++++++++++++..                        ",
"                        ..+++++++++++++++++++++++++++++++++++++++++++++..                         ",
"                          ..+++++++++++++++++++++++++++++++++++++++++..                           ",
"                            ..+++++++++++++++++++++++++++++++++++++..                             ",
"                              ...+++++++++++++++++++++++++++++++...                               ",
"                                 ....++++++++++++++++++++++++....                                 ",
"                                     ........++++++++........                                     ",
"                                           ............                                           ",
"                                                                                                  ",
"                                                                                                  ",
"                                                                                                  ",
"                                                                                                  ",
"                                                                                                  ",
"                                                                                                  ",
"                                                                                                  ",
"                                                                                                  ",
"                                                                                                  ",
"                                                                                                  ",
"                                                                                                  "};
