/* XPM */
static xpm_row_t xpm_collon[] = {
"60 90 2 1",
" 	g None",
".	g #ffffff",
"                                                            ",
"                                                            ",
"                                                            ",
"                                                            ",
"                                                            ",
"                                                            ",
"                                                            ",
"                                                            ",
"                                                            ",
"                                                            ",
"                                                            ",
"                          .....                             ",
"                        .........                           ",
"                       ...........                          ",
"                      .............                         ",
"                      ..............                        ",
"                      ..............                        ",
"                     ...............                        ",
"                     ...............                        ",
"                     ...............                        ",
"                     ...............                        ",
"                      ..............                        ",
"                      ..............                        ",
"                       ............                         ",
"                        ..........                          ",
"                         ........                           ",
"                                                            ",
"                                                            ",
"                                                            ",
"                                                            ",
"                                                            ",
"                                                            ",
"                                                            ",
"                                                            ",
"                                                            ",
"                                                            ",
"                                                            ",
"                                                            ",
"                                                            ",
"                                                            ",
"                                                            ",
"                                                            ",
"                                                            ",
"                                                            ",
"                                                            ",
"                                                            ",
"                                                            ",
"                                                            ",
"                                                            ",
"                                                            ",
"                                                            ",
"                                                            ",
"                                                            ",
"                                                            ",
"                                                            ",
"                                                            ",
"                                                            ",
"                                                            ",
"                                                            ",
"                                                            ",
"                                                            ",
"                                                            ",
"                                                            ",
"                          .....                             ",
"                        .........                           ",
"                       ...........                          ",
"                      .............                         ",
"                      ..............                        ",
"                     ...............                        ",
"                     ...............                        ",
"                     ...............                        ",
"                     ...............                        ",
"                     ...............                        ",
"                      ..............                        ",
"                      .............                         ",
"                       ............                         ",
"                        ..........                          ",
"                         ........                           ",
"                                                            ",
"                                                            ",
"                                                            ",
"                                                            ",
"                                                            ",
"                                                            ",
"                                                            ",
"                                                            ",
"                                                            ",
"                                                            ",
"                                                            ",
"                                                            "};
