/* XPM */
static xpm_row_t xpm_five[] = {
"60 90 177 2",
"  	c None",
". 	c #BBBBBB",
"+ 	c #BCBCBC",
"@ 	c #7C7C7C",
"# 	c #494949",
"$ 	c #717171",
"% 	c #767676",
"& 	c #747474",
"* 	c #737373",
"= 	c #7A7A7A",
"- 	c #858585",
"; 	c #7D7D7D",
"> 	c #7B7B7B",
", 	c #4F4F4F",
"' 	c #1E1E1E",
") 	c #2A2A2A",
"! 	c #262626",
"~ 	c #232323",
"{ 	c #222222",
"] 	c #272727",
"^ 	c #2F2F2F",
"/ 	c #343434",
"( 	c #555555",
"_ 	c #7E7E7E",
": 	c #373737",
"< 	c #191919",
"[ 	c #020202",
"} 	c #ffffff",
"| 	c #010101",
"1 	c #151515",
"2 	c #616161",
"3 	c #ADADAD",
"4 	c #969696",
"5 	c #3F3F3F",
"6 	c #3B3B3B",
"7 	c #818181",
"8 	c #393939",
"9 	c #1C1C1C",
"0 	c #676767",
"a 	c #2C2C2C",
"b 	c #171717",
"c 	c #323232",
"d 	c #525252",
"e 	c #212121",
"f 	c #363636",
"g 	c #131313",
"h 	c #595959",
"i 	c #A5A5A5",
"j 	c #2E2E2E",
"k 	c #101010",
"l 	c #040404",
"m 	c #030303",
"n 	c #070707",
"o 	c #0A0A0A",
"p 	c #181818",
"q 	c #797979",
"r 	c #1B1B1B",
"s 	c #313131",
"t 	c #3C3C3C",
"u 	c #414141",
"v 	c #515151",
"w 	c #656565",
"x 	c #0B0B0B",
"y 	c #777777",
"z 	c #757575",
"A 	c #868686",
"B 	c #A8A8A8",
"C 	c #AFAFAF",
"D 	c #CBCBCB",
"E 	c #C0C0C0",
"F 	c #0E0E0E",
"G 	c #B0B0B0",
"H 	c #4D4D4D",
"I 	c #242424",
"J 	c #ACACAC",
"K 	c #4B4B4B",
"L 	c #333333",
"M 	c #8B8B8B",
"N 	c #6A6A6A",
"O 	c #2B2B2B",
"P 	c #636363",
"Q 	c #282828",
"R 	c #6E6E6E",
"S 	c #1D1D1D",
"T 	c #3E3E3E",
"U 	c #161616",
"V 	c #939393",
"W 	c #121212",
"X 	c #989898",
"Y 	c #050505",
"Z 	c #A2A2A2",
"` 	c #C9C9C9",
" .	c #8E8E8E",
"..	c #BEBEBE",
"+.	c #C1C1C1",
"@.	c #D6D6D6",
"#.	c #C2C2C2",
"$.	c #565656",
"%.	c #8D8D8D",
"&.	c #A1A1A1",
"*.	c #808080",
"=.	c #434343",
"-.	c #6C6C6C",
";.	c #B1B1B1",
">.	c #4E4E4E",
",.	c #303030",
"'.	c #383838",
").	c #444444",
"!.	c #111111",
"~.	c #292929",
"{.	c #727272",
"].	c #686868",
"^.	c #424242",
"/.	c #9C9C9C",
"(.	c #0F0F0F",
"_.	c #6F6F6F",
":.	c #4C4C4C",
"<.	c #4A4A4A",
"[.	c #454545",
"}.	c #646464",
"|.	c #ABABAB",
"1.	c #1F1F1F",
"2.	c #878787",
"3.	c #3D3D3D",
"4.	c #8C8C8C",
"5.	c #7F7F7F",
"6.	c #090909",
"7.	c #0C0C0C",
"8.	c #626262",
"9.	c #5F5F5F",
"0.	c #505050",
"a.	c #5E5E5E",
"b.	c #787878",
"c.	c #666666",
"d.	c #404040",
"e.	c #606060",
"f.	c #9B9B9B",
"g.	c #585858",
"h.	c #3A3A3A",
"i.	c #474747",
"j.	c #252525",
"k.	c #353535",
"l.	c #9D9D9D",
"m.	c #5B5B5B",
"n.	c #575757",
"o.	c #707070",
"p.	c #838383",
"q.	c #080808",
"r.	c #A0A0A0",
"s.	c #BABABA",
"t.	c #909090",
"u.	c #484848",
"v.	c #BDBDBD",
"w.	c #979797",
"x.	c #5D5D5D",
"y.	c #888888",
"z.	c #545454",
"A.	c #959595",
"B.	c #8A8A8A",
"C.	c #919191",
"D.	c #D0D0D0",
"E.	c #C8C8C8",
"F.	c #B2B2B2",
"G.	c #A4A4A4",
"H.	c #696969",
"I.	c #2D2D2D",
"J.	c #060606",
"K.	c #848484",
"L.	c #CDCDCD",
"M.	c #CFCFCF",
"N.	c #B7B7B7",
"O.	c #F0F0F0",
"P.	c #535353",
"Q.	c #D7D7D7",
"R.	c #1A1A1A",
"S.	c #5A5A5A",
"T.	c #B8B8B8",
"                                                                                                                        ",
"                                                                                                                        ",
"                                                                                                                        ",
"                                                                                                                        ",
"                                                                                                                        ",
"                        . + + + + + + + + + + + + + + + + + + + + + + + + + + + + + +                                   ",
"                  @ # $ % & & & & & & & & & & & & & & & & & & & & & & & & & & & * = - ; ;                               ",
"                > , ' ) ! ~ ~ ~ ~ ~ ~ ~ ~ ~ ~ ~ ~ ~ ~ ~ ~ ~ ~ ~ ~ ~ ~ ~ ~ ~ ~ ~ { ] ^ / ( _                             ",
"                : < [ } } } } } } } } } } } } } } } } } } } } } } } } } } } } } } } } | 1 2 3                           ",
"              4 5 } } } } } } } } } } } } } } } } } } } } } } } } } } } } } } } } } } } } 6 *                           ",
"              7 8 } } } } } } } } } } } } } } } } } } } } } } } } } } } } } } } } } } } } 9 6                           ",
"              0 a } } } } } } } } } } } } } } } } } } } } } } } } } } } } } } } } } } } } b c                           ",
"              d e } } } } } } } } } } } } } } } } } } } } } } } } } } } } } } } } } } } } c 2                           ",
"              f g } } } } } } } } } } } } } } } } } } } } } } } } } } } } } } } } } } | } h i                           ",
"              j k } } } } } } } } [ l l l l l l l l l l l l l l l l l l l l l m l n o p # q                             ",
"              r n } } } } } } } } s t 6 6 6 6 6 6 6 6 6 6 6 6 6 6 6 6 6 6 6 6 6 u v w & %                               ",
"              o | } } } } } } } x w y % % % % % % % % % % % % % % % % % % % % z A B C                                   ",
"            D d } } } } } } } } m                                                                                       ",
"            E ( } } } } } } } } F                                                                                       ",
"            G H } } } } } } } } I                                                                                       ",
"            J K } } } } } } } } L                                                                                       ",
"            M 6 } } } } } } } } u                                                                                       ",
"            N O } } } } } } } } w                                                                                       ",
"            P Q } } } } } } } } R                                                                                       ",
"            K S } } } } } } } } _                                                                                       ",
"            T U } } } } } } } } V                                                                                       ",
"            / W } } } } } } } } X                                                                                       ",
"            b Y } } } } } } } } Z                                                                                       ",
"            } } } } } } } } } } -                                                                                       ",
"          ` K } } } } } } } } }  ...+.+.+.+.+.@.                                                                        ",
"          #.$.} } } } } } } } } * %. . . . . .&.*.1 =.-.B                                                               ",
"          ;.>.} } } } } } } } } ,.8 '.'.'.'.'.).,.!.~.# {.].^./.                                                        ",
"          J K } } } } } } } } } } } } } } } } } } } [ (.< !.O 0 _.&                                                     ",
"          J :.} } } } } } } } } } } } } } } } } } } } } } } | l U <.$.R                                                 ",
"          J :.} } } } } } } } } } } } } } } } } } } } } } } } } } } } [.}.V                                             ",
"          |.K } } } } } } } } } } } } } } } } } } } } } } } } } } } } } 1.}.2.                                          ",
"          E ( } } } } } } } } } } } } } } } } } } } } } } } } } } } } } } l 3.0                                         ",
"            # o } } } } } } } } } } } } } } } } } } } } } } } } } } } } } } m 6 0                                       ",
"            4.=.} } } } } } } } } } } } } } } } } } } } } } } } } } } } } } } l : P                                     ",
"              R =.< [ } } 9 ) a a a a a a a j ' } } } } } } } } } } } } } } } } } f q                                   ",
"                5.=.6.} 7.3.8.N N N N N N N 9.=.u ].P 8 x } } } } } } } } } } } } x 0.7                                 ",
"                                                        ].a.e } } } } } } } } } } } [ T                                 ",
"                                                            b.c.o } } } } } } } } } } 6 z                               ",
"                                                                d.'.} } } } } } } } } g e.f.                            ",
"                                                                  g.h.[ } } } } } } } } ^.@                             ",
"                                                                    i.W } } } } } } } } b i.                            ",
"                                                                      a.!.} } } } } } } } =.7                           ",
"                                                                      {.j.} } } } } } } } k.].                          ",
"                                                                        a.} } } } } } } } 1 a                           ",
"                                                                        _.l } } } } } } } } [.                          ",
"                                                                          { } } } } } } } } d l.                        ",
"                                                                          u } } } } } } } } d._                         ",
"                                                                          m.} } } } } } } } u *.                        ",
"                                                                          0 } } } } } } } } '._.                        ",
"                                                                          0 } } } } } } } } ) n.                        ",
"                                                                          0 } } } } } } } } 8 o.                        ",
"                                                                          e.} } } } } } } } u *.                        ",
"                                                                          ).} } } } } } } } u _                         ",
"                                                                        2.p } } } } } } } } H V                         ",
"                                                                        &.} } } } } } } } } >.C                         ",
"                                                                        = } } } } } } } } n g                           ",
"                                                                      b./ } } } } } } } } e ).                          ",
"                                                                      > b } } } } } } } } [.p.                          ",
"                                                                    c.,.q.} } } } } } } } ( G                           ",
"                                                                  r.* ~ } } } } } } } } ) v                             ",
"                                                                s.t.3.} } } } } } } } } u.*.                            ",
"                                                              v.w.t } } } } } } } } } Q x.*.                            ",
"                                                            i y.a } } } } } } } } } } <.*.                              ",
"                                                          _.m.j.} } } } } } } } } } 1.z.*.                              ",
"                                                      A.5.3.Y } } } } } } } } } } b m.B.                                ",
"                                                  -.c.t } | } } } } } } } } } } (.h.C.D.                                ",
"                                      E.|.$ d.a.n.e m [ } } } } } } } } } } } 6.s 0.                                    ",
"                s.F.C G.*.& & }.[.8 ^.H.c.u 9 7.Y | } } } } } } } } } } } } k j d.                                      ",
"          |.2 6 # K K <.k.I.I.a 9 g 6.q.q.m | } } } } } } } } } } } } } } U 8 0.                                        ",
"        C.0.' J.l Y Y Y [ [ [ [ | } } } } } } } } } } } } } } } } } } n ^ w K.                                          ",
"      L.z { } } } } } } } } } } } } } } } } } } } } } } } } } } } } < h.5.s.M.                                          ",
"      = i.W } } } } } } } } } } } } } } } } } } } } } } } } } } W ] u.-.N.O.                                            ",
"      P.~.Y } } } } } } } } } } } } } } } } } } } } } } } } k a u h                                                     ",
"      c.8 7.} } } } } } } } } } } } } } } } } } } } } [ W d.v H.                                                        ",
"      t.H k } } } } } } } } } } } } } } } } [ 6.k g k.c / A.                                                            ",
"      Q.5.k.o } } } } } } } } } } [ o b { 9 R.: m.P.=                                                                   ",
"        w.b.: I ^ s Q j s s Q (.[ < L z._.S.6 ].F.                                                                      ",
"          T.2 a.q @ H.b.; ; N c x k.h y.F.                                                                              ",
"                                                                                                                        ",
"                                                                                                                        ",
"                                                                                                                        ",
"                                                                                                                        ",
"                                                                                                                        ",
"                                                                                                                        ",
"                                                                                                                        "};
