/* XPM */
static xpm_row_t xpm_seven[] = {
"60 90 15 1",
" 	c None",
".	c #47704C",
"+	c #ffffff",
"@	c #C0C0C0",
"#	c #808080",
"$	c #151515",
"%	c #404040",
"&	c #9A9A9A",
"*	c #656565",
"=	c #F0F0F0",
"-	c #E0E0E0",
";	c #D0D0D0",
">	c #303030",
",	c #B0B0B0",
"'	c #505050",
"                                                            ",
"                                                            ",
"                                                            ",
"                                                            ",
"                                                            ",
"                                                            ",
"                                                            ",
"        @@@@@@@@@@@@@@@@@@@@@@@@@@@@@@@@@@@@@@@;            ",
"      '#***************************************#%%&         ",
"     '$++++++++++++++++++++++++++++++++++++++++++$%&        ",
"    #++++++++++++++++++++++++++++++++++++++++++++++*&       ",
"    >++++++++++++++++++++++++++++++++++++++++++++++$%       ",
"    +++++++++++++++++++++++++++++++++++++++++++++++++       ",
"    +++++++++++++++++++++++++++++++++++++++++++++++++       ",
"    >++++++++++++++++++++++++++++++++++++++++++++++++       ",
"    #++++++++++++++++++++++++++++++++++++++++++++++++       ",
"     %$++++++++++++++++++++++++++++++++++++++++++++++       ",
"     &'**'%%%%%%%%%%%%%%%%%%%%%%%%%%%%%%%>+++++++++$>       ",
"       -@&##############################,#+++++++++>'       ",
"                                         #+++++++++'#       ",
"                                        #$+++++++++#;       ",
"                                       @>+++++++++$'        ",
"                                       %++++++++++',        ",
"                                      '++++++++++$*=        ",
"                                     #+++++++++++>@         ",
"                                    #$+++++++++++#          ",
"                                   &>+++++++++++>           ",
"                                  ,>+++++++++++$@           ",
"                                  >+++++++++++$&            ",
"                                 %+++++++++++$*             ",
"                                *++++++++++++%              ",
"                               *++++++++++++*@              ",
"                              &$+++++++++++%;               ",
"                             *>+++++++++++>@                ",
"                            #%+++++++++++>#                 ",
"                           @#+++++++++++$#                  ",
"                           &++++++++++++%                   ",
"                          &$+++++++++++#;                   ",
"                         -'+++++++++++'@                    ",
"                         *$++++++++++>,                     ",
"                        &>++++++++++$*                      ",
"                       -*+++++++++++#                       ",
"                       #>++++++++++*;                       ",
"                      ,*++++++++++$#                        ",
"                      &+++++++++++&                         ",
"                      %++++++++++*,                         ",
"                     &++++++++++>#                          ",
"                     %+++++++++$*                           ",
"                    &++++++++++$                            ",
"                   -%+++++++++$#                            ",
"                   ,$+++++++++>                             ",
"                   %++++++++++&                             ",
"                  ;%+++++++++%                              ",
"                  #>+++++++++#                              ",
"                  '+++++++++%                               ",
"                 @'+++++++++&                               ",
"                 *>++++++++$*                               ",
"                 >+++++++++*&                               ",
"                ;#+++++++++#                                ",
"                #'++++++++$%                                ",
"                '>++++++++%#                                ",
"                $$++++++++*@                                ",
"                &+++++++++>                                 ",
"                #+++++++++>                                 ",
"                *++++++++$'                                 ",
"                '++++++++>#                                 ",
"                %++++++++>&                                 ",
"                >++++++++%@                                 ",
"                >++++++++%@                                 ",
"                >++++++++%@                                 ",
"                ++++++++++                                  ",
"                ++++++++++                                  ",
"                ++++++++++                                  ",
"                ++++++++++                                  ",
"                ++++++++++                                  ",
"                ++++++++++                                  ",
"                ++++++++++                                  ",
"                ++++++++++                                  ",
"                $+++++++++                                  ",
"                >++++++++$                                  ",
"                *++++++++'                                  ",
"                &+++++++>,                                  ",
"                 '$++++>*                                   ",
"                  %#**&#                                    ",
"                                                            ",
"                                                            ",
"                                                            ",
"                                                            ",
"                                                            ",
"                                                            "};
