/* XPM */
static xpm_row_t xpm_circleSprite[] = {
"30 30 14 1",
" 	g None",
".	g #6E6E6E",
"+	g #979797",
"@	g #B1B1B1",
"#	g #676767",
"$	g #BEBEBE",
"%	g #ECECEC",
"&	g #FFFFFF",
"*	g #FBFBFB",
"=	g #717171",
"-	g #E5E5E5",
";	g #F0F0F0",
">	g #666666",
",	g #707070",
"                              ",
"                              ",
"            .+@@+.            ",
"         #$%&&&&&&%$#         ",
"        $*&&&&&&&&&&*$        ",
"      =-&&&&&&&&&&&&&&-=      ",
"     =;&&&&&&&&&&&&&&&&;=     ",
"     -&&&&&&&&&&&&&&&&&&-     ",
"    $&&&&&&&&&&&&&&&&&&&&$    ",
"   #*&&&&&&&&&&&&&&&&&&&&*#   ",
"   $&&&&&&&&&&&&&&&&&&&&&&$   ",
"   %&&&&&&&&&&&&&&&&&&&&&&%   ",
"  .&&&&&&&&&&&&&&&&&&&&&&&&.  ",
"  +&&&&&&&&&&&&&&&&&&&&&&&&+  ",
"  @&&&&&&&&&&&&&&&&&&&&&&&&@  ",
"  @&&&&&&&&&&&&&&&&&&&&&&&&@  ",
"  +&&&&&&&&&&&&&&&&&&&&&&&&+  ",
"  .&&&&&&&&&&&&&&&&&&&&&&&&.  ",
"   %&&&&&&&&&&&&&&&&&&&&&&%   ",
"   $&&&&&&&&&&&&&&&&&&&&&&$   ",
"   #*&&&&&&&&&&&&&&&&&&&&*>   ",
"    $&&&&&&&&&&&&&&&&&&&&$    ",
"     -&&&&&&&&&&&&&&&&&&-     ",
"     ,;&&&&&&&&&&&&&&&&;=     ",
"      =-&&&&&&&&&&&&&&-=      ",
"        $*&&&&&&&&&&*$        ",
"         #$%&&&&&&%$#         ",
"            .+@@+.            ",
"                              ",
"                              "};
