/* XPM */
static xpm_row_t xpm_mouse2[] = {
"50 50 91 1",
" 	c None",
".	c #000000",
"+	c #ACACAC",
"@	c #0B0B0B",
"#	c #E4E4E4",
"$	c #C6C6C6",
"%	c #FFFFFF",
"&	c #B7B7B7",
"*	c #E3E3E3",
"=	c #A8A8A8",
"-	c #E2E2E2",
";	c #FEFEFE",
">	c #9B9B9B",
",	c #FCFCFC",
"'	c #8B8B8B",
")	c #E1E1E1",
"!	c #F9F9F9",
"~	c #7F7F7F",
"{	c #F5F5F5",
"]	c #6C6C6C",
"^	c #F1F1F1",
"/	c #5D5D5D",
"(	c #ECECEC",
"_	c #4B4B4B",
":	c #E0E0E0",
"<	c #3A3A3A",
"[	c #DEDEDE",
"}	c #292929",
"|	c #D3D3D3",
"1	c #151515",
"2	c #CACACA",
"3	c #010101",
"4	c #DFDFDF",
"5	c #BBBBBB",
"6	c #ADADAD",
"7	c #A0A0A0",
"8	c #919191",
"9	c #FAFAFA",
"0	c #838383",
"a	c #F6F6F6",
"b	c #6F6F6F",
"c	c #F2F2F2",
"d	c #616161",
"e	c #DCDCDC",
"f	c #EEEEEE",
"g	c #525252",
"h	c #DBDBDB",
"i	c #E8E8E8",
"j	c #E7E7E7",
"k	c #DADADA",
"l	c #D0D0D0",
"m	c #CDCDCD",
"n	c #CBCBCB",
"o	c #C7C7C7",
"p	c #999999",
"q	c #EDEDED",
"r	c #F4F4F4",
"s	c #A1A1A1",
"t	c #9E9E9E",
"u	c #EBEBEB",
"v	c #646464",
"w	c #D7D7D7",
"x	c #E9E9E9",
"y	c #040404",
"z	c #474747",
"A	c #808080",
"B	c #939393",
"C	c #D1D1D1",
"D	c #2C2C2C",
"E	c #D4D4D4",
"F	c #BFBFBF",
"G	c #020202",
"H	c #909090",
"I	c #888888",
"J	c #A7A7A7",
"K	c #060606",
"L	c #555555",
"M	c #A2A2A2",
"N	c #7D7D7D",
"O	c #1E1E1E",
"P	c #F0F0F0",
"Q	c #AEAEAE",
"R	c #717171",
"S	c #373737",
"T	c #BABABA",
"U	c #FDFDFD",
"V	c #636363",
"W	c #4C4C4C",
"X	c #A6A6A6",
"Y	c #C5C5C5",
"Z	c #0A0A0A",
"                                                  ",
"                                                  ",
"                                                  ",
"           .                                      ",
"           ..                                     ",
"           ...                                    ",
"           ....                                   ",
"           .....                                  ",
"           ..+@..                                 ",
"           ..#$...                                ",
"           ..#%&...                               ",
"           ..*%%=...                              ",
"           ..-%%;>..                              ",
"           ..-%%%,'..                             ",
"           ..)%%%%!~..                            ",
"           ..)%%%%%{]..                           ",
"           ..)%%%%%%^/..                          ",
"           ..)%%%%%%%(_..                         ",
"           ..:%%%%%%%%#<..                        ",
"           ..:%%%%%%%%%[}..                       ",
"           ..:%%%%%%%%%%|1..                      ",
"           ..:%%%%%%%%%%%23..                     ",
"           ..4%%%%%%%%%%%%5...                    ",
"           ..4%%%%%%%%%%%%%6...                   ",
"           ..4%%%%%%%%%%%%%;7..                   ",
"           ..4%%%%%%%%%%%%%%,8..                  ",
"           ..4%%%%%%%%%%%%%%%90..                 ",
"           ..4%%%%%%%%%%%%%%%%ab..                ",
"           ..4%%%%%%%%%%%%%%%%%cd..               ",
"           ..e%%%%%%%%%%%%%%%%%%fg..              ",
"           ..h%%%%%%%%%aij#k|lmnop...             ",
"           ..h%%%%%%%%%q1.............            ",
"           ..h%%%%%rs;%%t..............           ",
"           ..k%%%%uv.w%%xy.                       ",
"           ..w%%%)z..A%%%B..                      ",
"           ..w%%CD....)%%#..                      ",
"           ..E%FG.. ..H%%%I..                     ",
"           ..CJ...   .Kx%%[..                     ",
"           ..L...    ..M%%%N..                    ",
"           ....       .OP%%w..                    ",
"           ...        ..Q%%;R.                    ",
"           ..          .Sa%%l..                   ",
"           .           ..T%%UV.                   ",
"                        .W9%;X..                  ",
"                        ..Y|b...                  ",
"                         .Z....                   ",
"                         ....                     ",
"                          .                       ",
"                                                  ",
"                                                  "};
